<svg xmlns="http://www.w3.org/2000/svg" width="24" height="24" fill="currentColor" viewBox="0 0 24 24">
  <path d="M9 6c0-1.65685 1.3431-3 3-3s3 1.34315 3 3-1.3431 3-3 3-3-1.34315-3-3Zm2 3.62992c-.1263-.04413-.25-.08799-.3721-.13131-1.33928-.47482-2.49256-.88372-4.77995-.8482C4.84875 8.66593 4 9.46413 4 10.5v7.2884c0 1.0878.91948 1.8747 1.92888 1.8616 1.283-.0168 2.04625.1322 2.79671.3587.29285.0883.57733.1863.90372.2987l.00249.0008c.11983.0413.24534.0845.379.1299.2989.1015.6242.2088.9892.3185V9.62992Zm2-.00374V20.7551c.5531-.1678 1.0379-.3374 1.4545-.4832.2956-.1034.5575-.1951.7846-.2653.7257-.2245 1.4655-.3734 2.7479-.3566.5019.0065.9806-.1791 1.3407-.4788.3618-.3011.6723-.781.6723-1.3828V10.5c0-.58114-.2923-1.05022-.6377-1.3503-.3441-.29904-.8047-.49168-1.2944-.49929-2.2667-.0352-3.386.36906-4.6847.83812-.1256.04539-.253.09138-.3832.13765Z"/>
</svg>
