<svg xmlns="http://www.w3.org/2000/svg" width="24" height="24" fill="currentColor" viewBox="0 0 24 24">
  <path d="M3 4.92857C3 3.90506 3.80497 3 4.88889 3H19.1111C20.195 3 21 3.90506 21 4.92857V13h-3v-2c0-.5523-.4477-1-1-1h-4c-.5523 0-1 .4477-1 1v2H3V4.92857ZM3 15v1.0714C3 17.0949 3.80497 18 4.88889 18h3.47608L7.2318 19.3598c-.35356.4243-.29624 1.0548.12804 1.4084.42428.3536 1.05484.2962 1.40841-.128L10.9684 18h2.0632l2.2002 2.6402c.3535.4242.9841.4816 1.4084.128.4242-.3536.4816-.9841.128-1.4084L15.635 18h3.4761C20.195 18 21 17.0949 21 16.0714V15H3Z"/>
  <path d="M16 12v1h-2v-1h2Z"/>
</svg>
