<svg xmlns="http://www.w3.org/2000/svg" width="24" height="24" fill="currentColor" viewBox="0 0 24 24">
  <path d="M12.4472 4.10557c-.2815-.14076-.6129-.14076-.8944 0L2.76981 8.49706l9.21949 4.39024L21 8.38195l-8.5528-4.27638Z"/>
  <path d="M5 17.2222v-5.448l6.5701 3.1286c.278.1325.6016.1293.8771-.0084L19 11.618v5.6042c0 .2857-.1229.5583-.3364.7481l-.0025.0022-.0041.0036-.0103.009-.0119.0101-.0181.0152c-.024.02-.0562.0462-.0965.0776-.0807.0627-.1942.1465-.3405.2441-.2926.195-.7171.4455-1.2736.6928C15.7905 19.5208 14.1527 20 12 20c-2.15265 0-3.79045-.4792-4.90614-.9751-.5565-.2473-.98098-.4978-1.27356-.6928-.14631-.0976-.2598-.1814-.34049-.2441-.04036-.0314-.07254-.0576-.09656-.0776-.01201-.01-.02198-.0185-.02991-.0253l-.01038-.009-.00404-.0036-.00174-.0015-.0008-.0007s-.00004 0 .00978-.0112l-.00009-.0012-.01043.0117C5.12215 17.7799 5 17.5079 5 17.2222Zm-3-6.8765 2 .9523V17c0 .5523-.44772 1-1 1s-1-.4477-1-1v-6.6543Z"/>
</svg>
