<svg xmlns="http://www.w3.org/2000/svg" width="24" height="24" fill="currentColor" viewBox="0 0 24 24">
  <path d="M16 10c0-.55228-.4477-1-1-1h-3v2h3c.5523 0 1-.4477 1-1Z"/>
  <path d="M13 15v-2h2c1.6569 0 3-1.3431 3-3 0-1.65685-1.3431-3-3-3h-2.256c.1658-.46917.256-.97405.256-1.5 0-.51464-.0864-1.0091-.2454-1.46967C12.8331 4.01052 12.9153 4 13 4h7c.5523 0 1 .44772 1 1v9c0 .5523-.4477 1-1 1h-2.5l1.9231 4.6154c.2124.5098-.0287 1.0953-.5385 1.3077-.5098.2124-1.0953-.0287-1.3077-.5385L15.75 16l-1.827 4.3846c-.1825.438-.6403.6776-1.0889.6018.1075-.3089.1659-.6408.1659-.9864v-2.6002L14 15h-1ZM6 5.5C6 4.11929 7.11929 3 8.5 3S11 4.11929 11 5.5 9.88071 8 8.5 8 6 6.88071 6 5.5Z"/>
  <path d="M15 11h-4v9c0 .5523-.4477 1-1 1-.55228 0-1-.4477-1-1v-4H8v4c0 .5523-.44772 1-1 1s-1-.4477-1-1v-6.6973l-1.16797 1.752c-.30635.4595-.92722.5837-1.38675.2773-.45952-.3063-.5837-.9272-.27735-1.3867l2.99228-4.48843c.09402-.14507.2246-.26423.37869-.34445.11427-.05949.24148-.09755.3763-.10887.03364-.00289.06747-.00408.10134-.00355H15c.5523 0 1 .44772 1 1 0 .5523-.4477 1-1 1Z"/>
</svg>
