<svg xmlns="http://www.w3.org/2000/svg" width="24" height="24" fill="currentColor" viewBox="0 0 24 24">
  <path fill-rule="evenodd" d="M15 4c0-.55228.4477-1 1-1h4c.5523 0 1 .44772 1 1v3c0 .55228-.4477 1-1 1h-4v13H8V7.86853l-1.44532.96352c-.45952.30635-1.08039.18218-1.38675-.27735-.30635-.45953-.18217-1.0804.27735-1.38675l6.00002-4c.3359-.22393.7735-.22393 1.1094 0L15 4.79816V4Zm-5 8c0-.5523.4477-1 1-1h2c.5523 0 1 .4477 1 1s-.4477 1-1 1h-2c-.5523 0-1-.4477-1-1Zm1-4c-.5523 0-1 .44772-1 1s.4477 1 1 1h2c.5523 0 1-.44772 1-1s-.4477-1-1-1h-2Z" clip-rule="evenodd"/>
  <path d="M18 9.00011 17.9843 9h.0296L18 9.00011ZM6 10.5237l-2.27075.6386C3.29797 11.2836 3 11.677 3 12.125V20c0 .5523.44772 1 1 1h2V10.5237Zm14.2707.6386L18 10.5237V21h2c.5523 0 1-.4477 1-1v-7.875c0-.448-.298-.8414-.7293-.9627Z"/>
</svg>
