<svg xmlns="http://www.w3.org/2000/svg" width="24" height="24" fill="currentColor" viewBox="0 0 24 24">
  <path fill-rule="evenodd" d="M11.4453 3.16795c.3359-.22393.7735-.22393 1.1094 0l6 4c.4595.30635.5837.92722.2773 1.38675-.1925.28877-.5092.44511-.832.44541-.1748.00016-.3515-.04546-.5112-.1406-.0146-.00873-.0292-.01789-.0435-.02746L16 7.86853v8.59597l-.2322-.2323c-.9763-.9763-2.5593-.9763-3.5356 0-.9763.9763-.9763 2.5593 0 3.5356L13.4645 21H8V7.86853l-1.44532.96352c-.45952.30635-1.08039.18218-1.38675-.27735-.30635-.45953-.18217-1.0804.27735-1.38675l6.00002-4ZM11 11c-.5523 0-1 .4477-1 1s.4477 1 1 1h2c.5523 0 1-.4477 1-1s-.4477-1-1-1h-2Zm-1-2c0-.55228.4477-1 1-1h2c.5523 0 1 .44772 1 1s-.4477 1-1 1h-2c-.5523 0-1-.44772-1-1Z" clip-rule="evenodd"/>
  <path d="M21 13.708v-1.583c0-.448-.298-.8414-.7293-.9627L18 10.5237v3.9408l.2322-.2323c.7484-.7483 1.853-.923 2.7678-.5242ZM6 10.5237l-2.27075.6386C3.29797 11.2836 3 11.677 3 12.125V20c0 .5523.44772 1 1 1h2V10.5237Z"/>
  <path fill-rule="evenodd" d="M20.7071 15.2929c.3905.3905.3905 1.0237 0 1.4142l-4 4c-.3905.3905-1.0237.3905-1.4142 0l-2-2c-.3905-.3905-.3905-1.0237 0-1.4142.3905-.3905 1.0237-.3905 1.4142 0L16 18.5858l3.2929-3.2929c.3905-.3905 1.0237-.3905 1.4142 0Z" clip-rule="evenodd"/>
</svg>
