<svg xmlns="http://www.w3.org/2000/svg" width="24" height="24" fill="currentColor" viewBox="0 0 24 24">
  <path d="m6 10.5237-2.27075.6386C3.29797 11.2836 3 11.677 3 12.125V20c0 .5523.44772 1 1 1h2V10.5237Zm12 0 2.2707.6386c.4313.1213.7293.5147.7293.9627V20c0 .5523-.4477 1-1 1h-2V10.5237Z"/>
  <path fill-rule="evenodd" d="M12.5547 3.16795c-.3359-.22393-.7735-.22393-1.1094 0l-6.00002 4c-.45952.30635-.5837.92722-.27735 1.38675.30636.45953.92723.5837 1.38675.27735L8 7.86853V21h8V7.86853l1.4453.96352c.0143.00957.0289.01873.0435.02746.1597.09514.3364.14076.5112.1406.3228-.0003.6395-.15664.832-.44541.3064-.45953.1822-1.0804-.2773-1.38675l-6-4ZM10 12c0-.5523.4477-1 1-1h2c.5523 0 1 .4477 1 1s-.4477 1-1 1h-2c-.5523 0-1-.4477-1-1Zm1-4c-.5523 0-1 .44772-1 1s.4477 1 1 1h2c.5523 0 1-.44772 1-1s-.4477-1-1-1h-2Z" clip-rule="evenodd"/>
</svg>
