<svg xmlns="http://www.w3.org/2000/svg" width="24" height="24" fill="currentColor" viewBox="0 0 24 24">
  <path fill-rule="evenodd" d="M7.50001 6.49476c-.00222.00067-.00443.00134-.00665.00202-1.36964.41615-2.57189 1.22541-3.40555 1.89335-.42318.33907-.76614.65372-1.00483.88517-.11959.11596-.21369.21169-.2793.27999-.03283.03417-.05857.06153-.07687.08118l-.02184.02361-.00665.00728-.00225.00247-.00152.00167c-.23565.26049-.31736.6255-.21524.9616l1.88966 6.2193c.28122.9255.90731 1.6328 1.59535 2.159.68925.5272 1.4966.9166 2.25327 1.198.76111.2832 1.50814.4708 2.10341.5791.2973.054.5684.0904.7934.1077.1117.0085.2238.0133.3286.0113.0814-.0016.2434-.0076.4111-.0586.1678-.051.3057-.1361.3743-.18.0882-.0566.1786-.123.2667-.1923.1774-.1395.3824-.3205.5994-.5309-.076-.0369-.1525-.0755-.2297-.1152-.6068-.312-1.3433-.7546-2.0675-1.3064-.4898-.3733-1.01068-.8242-1.48988-1.3492-.28662.4467-.87678.5935-1.34124.3253-.47829-.2761-.64217-.8877-.36603-1.366.01906-.033.03873-.0675.05915-.1034.10835-.1902.23774-.4173.40797-.6498C7.73454 14.6941 7.5 13.8935 7.5 13V6.5l.00001-.00524ZM5.72195 11.0461c-.52844.1606-.82665.7191-.6661 1.2476.16056.5284.7191.8266 1.24753.6661l.00957-.003c.52843-.1605.82665-.7191.66609-1.2475-.16056-.5284-.7191-.8266-1.24753-.6661l-.00956.0029Z" clip-rule="evenodd"/>
  <path fill-rule="evenodd" d="M15 4c-1.4315 0-2.8171.42479-3.8089.82152-.5035.2014-.9231.40276-1.21876.55482-.14814.07618-.26601.14043-.34864.1867-.04134.02315-.07393.04184-.09715.05533l-.02775.01624-.00849.00502-.00286.00171-.00195.00117C9.1843 5.82323 9 6.14874 9 6.5V13c0 .9673.39342 1.8261.89875 2.5296.50625.7048 1.16555 1.312 1.80765 1.8013.646.4922 1.3062.8889 1.8442 1.1655.2688.1382.5176.2518.7279.3338.1044.0407.2102.0778.3111.1063.0784.0222.2351.0635.4104.0635.1753 0 .332-.0413.4104-.0635.1009-.0285.2067-.0656.3111-.1063.2103-.082.4591-.1956.7279-.3338.538-.2766 1.1982-.6733 1.8442-1.1655.6421-.4893 1.3014-1.0965 1.8076-1.8013C20.6066 14.8261 21 13.9673 21 13V6.5c0-.35126-.1852-.67728-.4864-.85801l-.001-.00065-.0029-.00171-.0085-.00502-.0278-.01624c-.0232-.01349-.0558-.03218-.0971-.05533-.0826-.04627-.2005-.11052-.3486-.1867-.2957-.15206-.7153-.35342-1.2188-.55482C17.8171 4.42479 16.4315 4 15 4Zm5 2.5.5136-.85801S20.5145 5.64251 20 6.5ZM13 7c-.5523 0-1 .44772-1 1s.4477 1 1 1h.01c.5523 0 1-.44772 1-1s-.4477-1-1-1H13Zm4 0c-.5523 0-1 .44772-1 1s.4477 1 1 1h.01c.5523 0 1-.44772 1-1s-.4477-1-1-1H17Zm-4.7071 4.2929c-.3905.3905-.3905 1.0237 0 1.4142.0269.027.0549.0552.0838.0845.4776.4831 1.243 1.2574 2.6233 1.2574 1.3803 0 2.1457-.7743 2.6232-1.2573.029-.0294.057-.0576.0839-.0846.3905-.3905.3905-1.0237 0-1.4142-.3905-.3905-1.0237-.3905-1.4142 0-.5293.5293-.757.7561-1.2929.7561-.5359 0-.7636-.2268-1.2929-.7561-.3905-.3905-1.0237-.3905-1.4142 0Z" clip-rule="evenodd"/>
</svg>
