<svg xmlns="http://www.w3.org/2000/svg" width="24" height="24" fill="currentColor" viewBox="0 0 24 24">
  <path fill-rule="evenodd" d="M8 3a1 1 0 0 1 1-1h6a1 1 0 0 1 1 1h2a2 2 0 0 1 2 2v15a2 2 0 0 1-2 2H6a2 2 0 0 1-2-2V5a2 2 0 0 1 2-2h2Zm6 1h-4v2H9a1 1 0 0 0 0 2h6a1 1 0 1 0 0-2h-1V4Zm-3 8a1 1 0 0 1 1-1h3a1 1 0 1 1 0 2h-3a1 1 0 0 1-1-1Zm-2-1a1 1 0 1 0 0 2h.01a1 1 0 1 0 0-2H9Zm2 5a1 1 0 0 1 1-1h3a1 1 0 1 1 0 2h-3a1 1 0 0 1-1-1Zm-2-1a1 1 0 1 0 0 2h.01a1 1 0 1 0 0-2H9Z" clip-rule="evenodd"/>
</svg>
