<svg xmlns="http://www.w3.org/2000/svg" width="24" height="24" fill="currentColor" viewBox="0 0 24 24">
  <path fill-rule="evenodd" d="M9 7V2.221a2 2 0 0 0-.5.365L4.586 6.5a2 2 0 0 0-.365.5H9Zm2 0V2h7a2 2 0 0 1 2 2v16a2 2 0 0 1-2 2H6a2 2 0 0 1-2-2V9h5a2 2 0 0 0 2-2Zm-2 4a2 2 0 0 0-2 2v2a2 2 0 0 0 2 2h2a2 2 0 0 0 2-2v-2a2 2 0 0 0-2-2H9Zm0 2h2v2H9v-2Zm7.965-.557a1 1 0 0 0-1.692-.72l-1.268 1.218a1 1 0 0 0-.308.721v.733a1 1 0 0 0 .37.776l1.267 1.032a1 1 0 0 0 1.631-.776v-2.984Z" clip-rule="evenodd"/>
</svg>
