<svg xmlns="http://www.w3.org/2000/svg" width="24" height="24" fill="currentColor" viewBox="0 0 24 24">
  <path fill-rule="evenodd" d="M9 2.221V7H4.221a2 2 0 0 1 .365-.5L8.5 2.586A2 2 0 0 1 9 2.22ZM11 2v5a2 2 0 0 1-2 2H4v11a2 2 0 0 0 2 2h12a2 2 0 0 0 2-2V4a2 2 0 0 0-2-2h-7Zm-.293 9.293a1 1 0 0 1 0 1.414L9.414 14l1.293 1.293a1 1 0 0 1-1.414 1.414l-2-2a1 1 0 0 1 0-1.414l2-2a1 1 0 0 1 1.414 0Zm2.586 1.414a1 1 0 0 1 1.414-1.414l2 2a1 1 0 0 1 0 1.414l-2 2a1 1 0 0 1-1.414-1.414L14.586 14l-1.293-1.293Z" clip-rule="evenodd"/>
</svg>
