<svg xmlns="http://www.w3.org/2000/svg" width="24" height="24" fill="currentColor" viewBox="0 0 24 24">
  <path fill-rule="evenodd" d="M9 7V2.221a2 2 0 0 0-.5.365L4.586 6.5a2 2 0 0 0-.365.5H9Zm2 0V2h7a2 2 0 0 1 2 2v5.703l-4.311-1.58a2 2 0 0 0-1.377 0l-5 1.832A2 2 0 0 0 8 11.861c.03 2.134.582 4.228 1.607 6.106.848 1.555 2 2.924 3.382 4.033H6a2 2 0 0 1-2-2V9h5a2 2 0 0 0 2-2Z" clip-rule="evenodd"/>
  <path fill-rule="evenodd" d="M15.345 9.061a1 1 0 0 0-.689 0l-5 1.833a1 1 0 0 0-.656.953c.028 1.97.538 3.905 1.485 5.641a12.425 12.425 0 0 0 3.956 4.34 1 1 0 0 0 1.12 0 12.426 12.426 0 0 0 3.954-4.34A12.14 12.14 0 0 0 21 11.848a1 1 0 0 0-.656-.954l-5-1.833ZM15 19.765a10.401 10.401 0 0 0 2.76-3.235 10.15 10.15 0 0 0 1.206-4.011L15 11.065v8.7Z" clip-rule="evenodd"/>
</svg>
