<svg xmlns="http://www.w3.org/2000/svg" width="24" height="24" fill="currentColor" viewBox="0 0 24 24">
  <path fill-rule="evenodd" d="M9 7V2.221a2 2 0 0 0-.5.365L4.586 6.5a2 2 0 0 0-.365.5H9Zm2 0V2h7a2 2 0 0 1 2 2v16a2 2 0 0 1-2 2H6a2 2 0 0 1-2-2V9h5a2 2 0 0 0 2-2Zm2.318.052h-.002A1 1 0 0 0 12 8v5.293A4.033 4.033 0 0 0 10.5 13C8.787 13 7 14.146 7 16s1.787 3 3.5 3 3.5-1.146 3.5-3c0-.107-.006-.211-.017-.313A1.04 1.04 0 0 0 14 15.5V9.766c.538.493 1 1.204 1 2.234a1 1 0 1 0 2 0c0-1.881-.956-3.14-1.86-3.893a6.4 6.4 0 0 0-1.636-.985 4.009 4.009 0 0 0-.165-.063l-.014-.005-.005-.001-.002-.001ZM9 16c0-.356.452-1 1.5-1s1.5.644 1.5 1-.452 1-1.5 1S9 16.356 9 16Z" clip-rule="evenodd"/>
</svg>
