<svg xmlns="http://www.w3.org/2000/svg" width="24" height="24" fill="currentColor" viewBox="0 0 24 24">
  <path fill-rule="evenodd" d="M9 7V2.221a2 2 0 0 0-.5.365L4.586 6.5a2 2 0 0 0-.365.5H9Zm2 0V2h7a2 2 0 0 1 2 2v16a2 2 0 0 1-2 2H6a2 2 0 0 1-2-2V9h5a2 2 0 0 0 2-2Zm2-2a1 1 0 1 0 0 2h3a1 1 0 1 0 0-2h-3Zm0 3a1 1 0 1 0 0 2h3a1 1 0 1 0 0-2h-3Zm-6 4a1 1 0 0 1 1-1h8a1 1 0 0 1 1 1v6a1 1 0 0 1-1 1H8a1 1 0 0 1-1-1v-6Zm8 1v1h-2v-1h2Zm0 3h-2v1h2v-1Zm-4-3v1H9v-1h2Zm0 3H9v1h2v-1Z" clip-rule="evenodd"/>
</svg>
