<svg xmlns="http://www.w3.org/2000/svg" width="24" height="24" fill="none" viewBox="0 0 24 24">
  <path stroke="currentColor" stroke-linecap="round" stroke-linejoin="round" stroke-width="2" d="M19.2857 7V5.78571c0-.43393-.3482-.78571-.7778-.78571H6.06345c-.42955 0-.77777.35178-.77777.78571V16m0 0h-1c-.55229 0-1 .4477-1 1v1c0 .5523.44771 1 1 1h5m-4-3h4m7.00002-6v3c0 .5523-.4477 1-1 1h-3m8-3v8c0 .5523-.4477 1-1 1h-6c-.5523 0-1-.4477-1-1v-5.397c0-.2536.0963-.4977.2696-.683l2.434-2.603c.189-.2022.4535-.317.7304-.317h3.566c.5523 0 1 .4477 1 1Z"/>
</svg>
