<svg xmlns="http://www.w3.org/2000/svg" width="24" height="24" fill="none" viewBox="0 0 24 24">
  <path stroke="currentColor" stroke-linecap="round" stroke-linejoin="round" stroke-width="2" d="M14.6144 7.19994c.3479.48981.5999 1.15357.5999 1.80006 0 1.6569-1.3432 3-3 3-1.6569 0-3.00004-1.3431-3.00004-3 0-.67539.22319-1.29865.59983-1.80006M6.21426 6v4m0-4 6.00004-3 6 3-6 2-2.40021-.80006M6.21426 6l3.59983 1.19994M6.21426 19.8013v-2.1525c0-1.6825 1.27251-3.3075 2.95093-3.6488l3.04911 2.9345 3-2.9441c1.7026.3193 3 1.9596 3 3.6584v2.1525c0 .6312-.5373 1.1429-1.2 1.1429H7.41426c-.66274 0-1.2-.5117-1.2-1.1429Z"/>
</svg>
