<svg xmlns="http://www.w3.org/2000/svg" fill="none" viewBox="0 0 24 24">
  <path fill="#383838" fill-rule="evenodd" d="M8 7V2.2a2 2 0 0 0-.5.4l-4 3.9a2 2 0 0 0-.3.5H8Zm2 0V2h7a2 2 0 0 1 2 2v.1a5 5 0 0 0-4.7 1.4l-6.7 6.6a3 3 0 0 0-.8 1.6l-.7 3.7a3 3 0 0 0 3.5 3.5l3.7-.7a3 3 0 0 0 1.5-.9l4.2-4.2V20a2 2 0 0 1-2 2H5a2 2 0 0 1-2-2V9h5a2 2 0 0 0 2-2Z" clip-rule="evenodd"/>
  <path fill="#2F2F38" fill-rule="evenodd" d="M17.4 8a1 1 0 0 1 1.2.3 1 1 0 0 1 0 1.6l-.3.3-1.6-1.5.4-.4.3-.2Zm-2.1 2.1-4.6 4.7-.4 1.9 1.9-.4 4.6-4.7-1.5-1.5ZM17.9 6a3 3 0 0 0-2.2 1L9 13.5a1 1 0 0 0-.2.5L8 17.8a1 1 0 0 0 1.2 1.1l3.7-.7c.2 0 .4-.1.5-.3l6.6-6.6A3 3 0 0 0 18 6Z" clip-rule="evenodd"/>
</svg>
