<svg xmlns="http://www.w3.org/2000/svg" fill="none" viewBox="0 0 24 24">
  <path fill="#383838" fill-rule="evenodd" d="M9 2.2V7H4.2l.4-.5 3.9-4 .5-.3Zm2-.2v5a2 2 0 0 1-2 2H4a2 2 0 0 0-2 2v7c0 1.1.9 2 2 2 0 1.1.9 2 2 2h12a2 2 0 0 0 2-2 2 2 0 0 0 2-2v-7a2 2 0 0 0-2-2V4a2 2 0 0 0-2-2h-7Zm-6 9a1 1 0 0 0-1 1v5a1 1 0 1 0 2 0v-1h.5a2.5 2.5 0 0 0 0-5H5Zm1.5 3H6v-1h.5a.5.5 0 0 1 0 1Zm4.5-3a1 1 0 0 0-1 1v5a1 1 0 1 0 2 0v-1h.5a2.5 2.5 0 0 0 0-5H11Zm1.5 3H12v-1h.5a.5.5 0 0 1 0 1Zm4.5-3a1 1 0 1 0 0 2v4a1 1 0 1 0 2 0v-4a1 1 0 1 0 0-2h-2Z" clip-rule="evenodd"/>
</svg>
