<svg xmlns="http://www.w3.org/2000/svg" fill="none" viewBox="0 0 24 24">
  <path fill="#383838" fill-rule="evenodd" d="M9 2.2V7H4.2l.4-.5 3.9-4 .5-.3Zm2-.2v5a2 2 0 0 1-2 2H4a2 2 0 0 0-2 2v7c0 1.1.9 2 2 2 0 1.1.9 2 2 2h12a2 2 0 0 0 2-2 2 2 0 0 0 2-2v-7a2 2 0 0 0-2-2V4a2 2 0 0 0-2-2h-7Zm1 8.8A2.3 2.3 0 0 0 9.6 13a2.3 2.3 0 0 0 2.1 2.5h.7a.3.3 0 0 1 .2.4l-.4.1h-1a1 1 0 1 0 0 2h1c.5 0 1 0 1.4-.3a2 2 0 0 0 1-1.1 2.3 2.3 0 0 0-2.2-3l-.5-.1a.3.3 0 0 1-.3-.4.3.3 0 0 1 .4-.3h1a1 1 0 1 0 0-2h-1Zm8 1.5a1 1 0 1 0-2-.6l-.5 1.7-.5-1.7a1 1 0 0 0-2 .6l1.5 4.8a1 1 0 0 0 1.9 0l1.6-4.8Zm-13.8.9.4-.2h1a1 1 0 1 0 0-2h-1A2.6 2.6 0 0 0 4 13.6v1.8A2.6 2.6 0 0 0 6.6 18h1a1 1 0 1 0 0-2h-1a.6.6 0 0 1-.6-.6v-1.8c0-.1 0-.3.2-.4Z" clip-rule="evenodd"/>
</svg>
