<svg xmlns="http://www.w3.org/2000/svg" width="24" height="24" fill="none" viewBox="0 0 24 24">
  <path stroke="currentColor" stroke-linecap="round" stroke-linejoin="round" stroke-width="2" d="M5 10V7.914a1 1 0 0 1 .293-.707l3.914-3.914A1 1 0 0 1 9.914 3H18a1 1 0 0 1 1 1v6M5 19v1a1 1 0 0 0 1 1h12a1 1 0 0 0 1-1v-1M10 3v4a1 1 0 0 1-1 1H5m14 9.006h-.335a1.647 1.647 0 0 1-1.647-1.647v-1.706a1.647 1.647 0 0 1 1.647-1.647L19 12M5 12v5h1.375A1.626 1.626 0 0 0 8 15.375v-1.75A1.626 1.626 0 0 0 6.375 12H5Zm9 1.5v2a1.5 1.5 0 0 1-1.5 1.5v0a1.5 1.5 0 0 1-1.5-1.5v-2a1.5 1.5 0 0 1 1.5-1.5v0a1.5 1.5 0 0 1 1.5 1.5Z"/>
</svg>
