<svg xmlns="http://www.w3.org/2000/svg" width="24" height="24" fill="none" viewBox="0 0 24 24">
  <path stroke="currentColor" stroke-linecap="round" stroke-linejoin="round" stroke-width="2" d="M5 10V7.914a1 1 0 0 1 .293-.707l3.914-3.914A1 1 0 0 1 9.914 3H18a1 1 0 0 1 1 1v6M5 19v1a1 1 0 0 0 1 1h12a1 1 0 0 0 1-1v-1M10 3v4a1 1 0 0 1-1 1H5m2.665 9H6.647A1.647 1.647 0 0 1 5 15.353v-1.706A1.647 1.647 0 0 1 6.647 12h1.018M16 12l1.443 4.773L19 12m-6.057-.152-.943-.02a1.34 1.34 0 0 0-1.359 1.22 1.32 1.32 0 0 0 1.172 1.421l.536.059a1.273 1.273 0 0 1 1.226 1.718c-.2.571-.636.754-1.337.754h-1.13"/>
</svg>
