<svg xmlns="http://www.w3.org/2000/svg" width="24" height="24" fill="none" viewBox="0 0 24 24">
  <path stroke="currentColor" stroke-linecap="round" stroke-linejoin="round" stroke-width="2" d="M8.891 15.107 15.11 8.89m-5.183-.52h.01m3.089 7.254h.01M14.08 3.902a2.849 2.849 0 0 0 2.176.902 2.845 2.845 0 0 1 2.94 2.94 2.849 2.849 0 0 0 .901 2.176 2.847 2.847 0 0 1 0 4.16 2.848 2.848 0 0 0-.901 2.175 2.843 2.843 0 0 1-2.94 2.94 2.848 2.848 0 0 0-2.176.902 2.847 2.847 0 0 1-4.16 0 2.85 2.85 0 0 0-2.176-.902 2.845 2.845 0 0 1-2.94-2.94 2.848 2.848 0 0 0-.901-2.176 2.848 2.848 0 0 1 0-4.16 2.849 2.849 0 0 0 .901-2.176 2.845 2.845 0 0 1 2.941-2.94 2.849 2.849 0 0 0 2.176-.901 2.847 2.847 0 0 1 4.159 0Z"/>
</svg>
