<svg xmlns="http://www.w3.org/2000/svg" fill="none" viewBox="0 0 24 24">
  <path stroke="currentColor" stroke-linecap="round" stroke-linejoin="round" stroke-width="2" d="M8.9 15.1 15 9m-5-.6h0m3.1 7.2h0M14 4a2.8 2.8 0 0 0 2.3.9 2.8 2.8 0 0 1 2.9 3 2.8 2.8 0 0 0 .9 2.1 2.8 2.8 0 0 1 0 4.2 2.8 2.8 0 0 0-.9 2.2 2.8 2.8 0 0 1-3 2.9 2.8 2.8 0 0 0-2.1.9 2.8 2.8 0 0 1-4.2 0 2.8 2.8 0 0 0-2.2-.9 2.8 2.8 0 0 1-2.9-3 2.8 2.8 0 0 0-.9-2.1 2.8 2.8 0 0 1 0-4.2 2.8 2.8 0 0 0 .9-2.2 2.8 2.8 0 0 1 3-2.9A2.8 2.8 0 0 0 9.9 4a2.8 2.8 0 0 1 4.2 0Z"/>
</svg>
