<svg xmlns="http://www.w3.org/2000/svg" fill="none" viewBox="0 0 20 20">
  <path stroke="currentColor" stroke-linecap="round" stroke-linejoin="round" stroke-width="2" d="m7 13 6-6m-5-.5h.01m2.98 7H11m1.007-11.313a2.748 2.748 0 0 0 2.1.87 2.745 2.745 0 0 1 2.837 2.837 2.749 2.749 0 0 0 .87 2.1 2.749 2.749 0 0 1 0 4.014 2.748 2.748 0 0 0-.87 2.1 2.746 2.746 0 0 1-2.837 2.837 2.75 2.75 0 0 0-2.1.87 2.748 2.748 0 0 1-4.014 0 2.75 2.75 0 0 0-2.1-.87 2.744 2.744 0 0 1-2.837-2.837 2.75 2.75 0 0 0-.87-2.1 2.747 2.747 0 0 1 0-4.014 2.75 2.75 0 0 0 .87-2.1 2.745 2.745 0 0 1 2.838-2.837 2.749 2.749 0 0 0 2.1-.87 2.748 2.748 0 0 1 4.013 0Z"/>
</svg>
