<svg xmlns="http://www.w3.org/2000/svg" width="24" height="24" fill="none" viewBox="0 0 24 24">
  <path fill="currentColor" d="M11.6643 2.05648c.0197-.00699.1589-.05645.3357-.05645.1768 0 .316.04946.3357.05645l.0019.00067c.0461.01577.0846.03229.1092.04332.0514.02304.1015.04898.1449.07268.0896.04898.1957.11302.3102.18855.2291.15109.521.36725.8121.63689C14.247 3.49218 15 4.37 15 5.50003c0 1.12688-.7447 2.00396-1.2779 2.49995-.2531.23541-.5075.43043-.7221.57742V10h5c.5523 0 1 .4477 1 1v3h-4c-.0568 0-.1125.0048-.1667.0139-.0542-.0091-.1099-.0139-.1667-.0139H5v-3c0-.5523.44772-1 1-1h5V8.57622c-.2139-.14666-.4676-.34115-.7202-.57589C9.74664 7.50489 9 6.62764 9 5.50003c0-1.13003.753-2.00785 1.286-2.50144.2911-.26964.583-.4858.8121-.63689.1145-.07553.2206-.13957.3102-.18855.0434-.0237.0935-.04964.1449-.07268.0246-.01103.0631-.02755.1092-.04332l.0019-.00067ZM4 17.8377V21c0 .5523.44772 1 1 1h14c.5523 0 1-.4477 1-1v-2.8243c-.0609.0534-.1248.1054-.1917.1556-.56.42-1.274.6687-2.1416.6687-.8677 0-1.5817-.2487-2.1417-.6687-.281-.2108-.5081-.4531-.6917-.7045-.1835.2514-.4106.4937-.6917.7045-.5599.42-1.2739.6687-2.1416.6687-.8677 0-1.5817-.2487-2.14169-.6687-.20142-.1511-.37514-.3184-.52499-.4936-.14984.1752-.32356.3425-.52499.4936-.55999.42-1.27398.6687-2.14166.6687s-1.58168-.2487-2.14167-.6687c-.20143-.1511-.37515-.3184-.525-.4936ZM5.2078 16c.0124.0314.0255.0628.03934.0939.11841.2664.27553.4856.47786.6374.19001.1425.47602.2687.94167.2687s.75165-.1262.94166-.2687c.20234-.1518.35945-.371.47786-.6374.01384-.0311.02694-.0625.03934-.0939H5.2078Zm5.3727.0939c-.0139-.0311-.027-.0625-.0394-.0939h2.9177c-.0124.0314-.0255.0628-.0393.0939-.1184.2664-.2755.4856-.4779.6374-.19.1425-.476.2687-.9416.2687-.4657 0-.7517-.1262-.9417-.2687-.2023-.1518-.3594-.371-.4778-.6374Zm5.6666 0c-.0138-.0311-.0269-.0625-.0393-.0939h2.9177c-.0124.0314-.0255.0628-.0393.0939-.1184.2664-.2755.4856-.4779.6374-.19.1425-.476.2687-.9416.2687-.4657 0-.7517-.1262-.9417-.2687-.2023-.1518-.3594-.371-.4779-.6374Z"/>
</svg>
