<svg xmlns="http://www.w3.org/2000/svg" width="24" height="24" fill="none" viewBox="0 0 24 24">
  <path fill="currentColor" fill-rule="evenodd" d="M12.0212 2.37541c.2069.29981.2344.6884.0718 1.01435-.0835.16728-.1286.49646-.0866.81839.0345.26443.1525.51845.3564.72235.3798.37974.9446.46622 1.4086.25366.5022-.23 1.0957-.0094 1.3256.49272.0358.07797.0606.15815.0752.23883.0722.36885-.0676.76315-.391.99974-.067.04901-.1315.10409-.1929.16547-.6377.63769-.6377 1.67158 0 2.30927.6377.63771 1.6716.63771 2.3093 0 .1104-.11046.2008-.23148.2721-.35918.2649-.47416.8598-.65023 1.3401-.3966.4802.25363.6702.84422.428 1.33031-.1068.21428-.1459.45618-.1151.69208.033.2531.146.4962.3412.6915.265.265.622.3806.9709.3452.0473-.0048.095-.0062.1425-.0043.111.0047.5252-.0071.7534-.0158.2865-.0108.5639.1018.7617.3093.1978.2075.2971.4899.2726.7756-.1945 2.2647-1.1592 4.478-2.8921 6.2109-3.9053 3.9053-10.23692 3.9053-14.14216 0-3.90524-3.9052-3.90524-10.23686 0-14.1421C6.727 3.13084 8.88362 2.17056 11.0983 1.94837c.3624-.03636.716.12723.9229.42704ZM8.65695 8.41498c-.55229 0-1 .44771-1 1 0 .55228.44771 1.00002 1 1.00002h.01c.55228 0 1-.44774 1-1.00002 0-.55229-.44772-1-1-1h-.01ZM7.27106 12c-.55229 0-1 .4478-1 1 0 .5523.44771 1 1 1h.01c.55228 0 1-.4477 1-1 0-.5522-.44772-1-1-1h-.01Zm7.68744 1.9157c-.5523 0-1 .4477-1 1s.4477 1 1 1h.01c.5523 0 1-.4477 1-1s-.4477-1-1-1h-.01ZM11 16c-.5523 0-1.00004.4478-1.00004 1 0 .5523.44774 1 1.00004 1h.01c.5523 0 1-.4477 1-1 0-.5522-.4477-1-1-1H11Z" clip-rule="evenodd"/>
</svg>
