<svg xmlns="http://www.w3.org/2000/svg" width="24" height="24" fill="none" viewBox="0 0 24 24">
  <path fill="currentColor" d="M9.98189 4.50602c1.24881-.67469 2.78741-.67469 4.03621 0l3.9638 2.14148c.3634.19632.6862.44109.9612.72273l-6.9288 3.60207L5.20654 7.225c.2403-.22108.51215-.41573.81157-.5775l3.96378-2.14148ZM4.16678 8.84364C4.05757 9.18783 4 9.5493 4 9.91844v4.28296c0 1.3494.7693 2.5963 2.01811 3.2709l3.96378 2.1415c.32051.1732.66011.3019 1.00901.3862v-7.4L4.16678 8.84364ZM13.009 20c.3489-.0843.6886-.213 1.0091-.3862l3.9638-2.1415C19.2307 16.7977 20 15.5508 20 14.2014V9.91844c0-.30001-.038-.59496-.1109-.87967L13.009 12.6155V20Z"/>
</svg>
