<svg xmlns="http://www.w3.org/2000/svg" width="24" height="24" fill="none" viewBox="0 0 24 24">
  <path fill="currentColor" fill-rule="evenodd" d="M9.70707 4.29289c-.39052-.39052-1.02369-.39052-1.41421.00001-.39052.39052-.39052 1.02369 0 1.41421l1.79464 1.79461c-.89352.26818-1.7041.62743-2.39859 1.03679-.75153.44298-1.39556.9614-1.86395 1.51679-.05394.0639-.10674.1298-.1579.1975L3.70711 8.29288c-.39053-.39052-1.02369-.39052-1.41422 0-.39052.39053-.39052 1.02369 0 1.41422L4.58579 12l-2.2929 2.2929c-.39052.3905-.39052 1.0237 0 1.4142.39053.3905 1.02369.3905 1.41422 0l1.95995-1.96c.05116.0677.10396.1336.1579.1976.46839.5554 1.11242 1.0738 1.86395 1.5168.05288.0311.10644.062.16065.0926l-.94493 1.2397-.00466.0062C5.91107 18.1185 6.85198 20 8.5 20h1.49997c.57803 0 1.04673-.2818 1.35903-.5316.3262-.261.6028-.5842.816-.8684.2175-.29.395-.5746.5169-.7836.0616-.1056.1104-.1944.1446-.2582.0172-.032.0307-.0579.0404-.0767l.0117-.0228.0037-.0072.0021-.0043c.0736-.1472.1447-.287.1954-.4475.1381.0059.1873-.001.327 0-.1119-.1811-.2137-.3588-.2975-.5251-.8831-1.5257-1.4054-2.8736-1.4079-4.3386-.0025-1.4614.5132-2.89857 1.4025-4.59935.0088-.01699.0182-.03371.028-.05015.0924-.15428.1875-.31964.2809-.48626-.3483.0023-.6193.013-.9563.04469-.0768-.07681-.1814-.17406-.2594-.25204l-2.50003-2.5ZM11.007 16.7345c-.4422-.095-.8687-.2129-1.27603-.3495L8.5 18h1.46745c.01805-.0079.06485-.0315.14225-.0934.1425-.114.3035-.2908.4653-.5066.1575-.21.2925-.4254.3893-.5914.0154-.0263.0296-.0511.0427-.0741Zm8.1536-1.6154c-.94.6583-2.1207 1.2825-3.5044 1.6203-.2955-.4048-.5956-.8506-.7597-1.1826-.0099-.02-.0205-.0397-.0317-.059-.8171-1.4068-1.1517-2.4006-1.1534-3.3652-.0016-.9721.3341-2.0568 1.1618-3.64445.2416-.40531.4939-.8667.696-1.24835 1.4212.33251 2.6317.96898 3.5914 1.64108 1.3918.97475 2.3082 2.05962 2.6505 2.53422.2519.3492.2519.8205 0 1.1698-.3423.4746-1.2587 1.5594-2.6505 2.5342Zm-4.1739-3.4914c0-.5523.4477-1 1-1h.01c.5523 0 1 .4477 1 1s-.4477 1-1 1h-.01c-.5523 0-1-.4477-1-1Z" clip-rule="evenodd"/>
</svg>
