<svg xmlns="http://www.w3.org/2000/svg" width="24" height="24" fill="none" viewBox="0 0 24 24">
  <path fill="currentColor" fill-rule="evenodd" d="M8 2c-.55228 0-1 .44772-1 1v2H6c-.55228 0-1 .44772-1 1 0 .44954.29662.82979.70483.95572C4.92812 7.93035 4 9.40184 4 11v8.002C4 21.2121 5.79175 23 8 23h8c2.2083 0 4-1.7879 4-3.998V11c0-1.59816-.9281-3.06965-1.7048-4.04428C18.7034 6.8298 19 6.44954 19 6c0-.55228-.4477-1-1-1h-1V3c0-.55228-.4477-1-1-1H8Zm5 7c0-.55228-.4477-1-1-1-.5522 0-1 .44772-1 1v1.703c-.194-.104-.3946-.1973-.5475-.2654-.1648-.0734-.3276-.1409-.45886-.1898-.06227-.0233-.13576-.0493-.20586-.0692-.02974-.0085-.09377-.0261-.17034-.037-.03336-.0048-.11836-.0159-.22524-.0081-.05401.004-.15081.0151-.26455.0554-.111.0393-.30275.1296-.45957.3326-.14595.1889-.18661.3793-.20009.477-.01449.1049-.0093.1904-.00456.2385.00943.0956.03059.1697.03992.2007.02096.0699.04596.1276.05898.1568.02991.0671.06629.1367.09992.1979.07011.1275.16492.2844.27078.4437.10518.1582.23212.3352.36751.4957.11722.139.30928.3498.55094.4923.21752.1282.59062.3174.90382.4637.0816.0381.1647.0759.2447.1108v.8763c-.194-.104-.3946-.1973-.5475-.2654-.1648-.0734-.3276-.1408-.45886-.1898-.06227-.0233-.13576-.0493-.20586-.0692-.02974-.0085-.09377-.0261-.17034-.037-.03336-.0047-.11836-.0159-.22524-.0081-.05401.004-.15081.0151-.26455.0554-.111.0393-.30275.1296-.45957.3326-.14595.189-.18661.3793-.20009.477-.01449.105-.0093.1904-.00456.2386.00943.0955.03059.1696.03992.2006.02096.0699.04596.1276.05898.1568.02991.0671.06629.1368.09992.1979.07011.1275.16492.2844.27078.4437.10518.1582.23212.3352.36751.4957.11722.139.30928.3498.55094.4923.21752.1282.59062.3174.90382.4637.0816.0381.1647.0759.2447.1109V19c0 .5523.4478 1 1 1 .5523 0 1-.4477 1-1v-1.2295c.0801-.0349.1632-.0727.2447-.1108.3132-.1463.6864-.3355.9039-.4637.2416-.1425.4337-.3533.5509-.4923.1354-.1605.2623-.3375.3675-.4957.1059-.1593.2007-.3162.2708-.4437.0336-.0611.07-.1308.0999-.1979.013-.0292.038-.0869.059-.1568.0093-.031.0305-.1051.0399-.2006.0048-.0482.0099-.1336-.0045-.2386-.0135-.0977-.0542-.288-.2001-.477-.1569-.203-.3486-.2933-.4596-.3326-.1137-.0403-.2105-.0514-.2645-.0554-.1069-.0078-.1919.0034-.2253.0081-.0766.0109-.1406.0285-.1703.037-.0701.0199-.1436.0459-.2059.0692-.1312.049-.294.1164-.4588.1898-.1529.0681-.3536.1614-.5476.2654v-.8763c.0801-.0349.1632-.0727.2447-.1108.3132-.1463.6864-.3355.9039-.4637.2416-.1425.4337-.3533.5509-.4923.1354-.1605.2623-.3375.3675-.4957.1059-.1593.2007-.3162.2708-.4437.0336-.0612.07-.1308.0999-.1979.013-.0292.038-.0869.059-.1568.0093-.031.0305-.1051.0399-.2007.0048-.0481.0099-.1336-.0045-.2385-.0135-.0977-.0542-.2881-.2001-.477-.1569-.203-.3486-.2933-.4596-.3326-.1137-.0403-.2105-.0514-.2645-.0554-.1069-.0078-.1919.0033-.2253.0081-.0766.0109-.1406.0285-.1703.037-.0701.0199-.1436.0459-.2059.0692-.1312.0489-.294.1164-.4588.1898-.1529.0681-.3536.1613-.5476.2654V9Z" clip-rule="evenodd"/>
</svg>
