<svg xmlns="http://www.w3.org/2000/svg" width="24" height="24" fill="none" viewBox="0 0 24 24">
  <path fill="currentColor" fill-rule="evenodd" d="M5.00002 3c-.39238 0-.7485.22947-.91064.58678-.16213.35732-.10032.77643.15806 1.07172L11 12.3757V19H9.00002c-.55229 0-1 .4477-1 1s.44771 1 1 1H15c.5523 0 1-.4477 1-1s-.4477-1-1-1h-2v-6.6243l6.7526-7.71719c.2584-.29529.3202-.71441.1581-1.07172C19.7485 3.22947 19.3924 3 19 3H5.00002ZM15.0462 7H8.95378l-1.75-2h9.59242l-1.75 2Z" clip-rule="evenodd"/>
</svg>
