<svg xmlns="http://www.w3.org/2000/svg" width="24" height="24" fill="none" viewBox="0 0 24 24">
  <path fill="currentColor" d="M5.00001 4.00003c-.55229 0-1 .44772-1 1 0 .55229.44771 1 1 1h1c.55228 0 1-.44771 1-1 0-.55228-.44772-1-1-1h-1Zm5.66889 1.39531c-.2216-.27879-.645-.61839-.94433-.83763-.16499-.12086-.34155-.24116-.49677-.33129-.072-.04181-.17435-.09779-.28569-.14043-.05091-.0195-.15457-.05642-.2853-.07202-.07757-.00926-.47279-.05405-.81565.25599-.28283.25575-.32408.57239-.33352.663-.01301.12501-.0017.22937.00606.28539.0164.11839.04792.22824.0723.30499.05229.16466.12863.35151.20939.5288.15481.33984.39005.78485.63096 1.08802.16417.20658.53268.55501.87921.85987-.34653.30486-.71505.65329-.87921.85988-.24091.30316-.47615.74817-.63096 1.08801-.08076.17728-.1571.36418-.20939.52878-.02438.0768-.0559.1866-.0723.305-.00776.056-.01907.1604-.00606.2854.00944.0906.05069.4072.33352.663.34286.31.73807.2653.81565.256.13073-.0156.23439-.0525.2853-.072.11134-.0427.21369-.0986.28569-.1405.15522-.0901.33178-.2104.49677-.3313.29933-.2192.72273-.5588.94433-.8376.1753-.2206.5103-.74026.773-1.18533.082-.13908.1641-.28267.2378-.41934h1.1367c-.2032.28993-.3943.65733-.5267.94787-.0807.1773-.1571.3642-.2094.5288-.0243.0768-.0559.1866-.0723.305-.0077.056-.019.1604-.006.2854.0094.0906.0507.4072.3335.663.3429.31.7381.2652.8156.256.1308-.0156.2344-.0525.2853-.072.1114-.0427.2137-.0987.2857-.1405.1552-.0901.3318-.2104.4968-.3313.2993-.2192.7228-.5588.9443-.8376.1754-.2207.5103-.74026.773-1.18532.0821-.13908.1641-.28267.2378-.41935h.6424c-.2032.28993-.3943.65733-.5267.94787-.0807.1773-.1571.3642-.2094.5288-.0243.0768-.0559.1866-.0723.305-.0077.056-.019.1604-.006.2854.0094.0906.0507.4072.3335.663.3429.31.7381.2652.8156.256.1308-.0156.2344-.0525.2853-.072.1114-.0427.2137-.0987.2857-.1405.1552-.0901.3318-.2104.4968-.3313.2993-.2192.7228-.5588.9443-.8376.1754-.2207.5103-.74026.773-1.18532.0821-.13908.1641-.28267.2378-.41935h.8261c.5522 0 1-.44772 1-1s-.4478-1-1-1h-.8261c-.0737-.13668-.1557-.28027-.2378-.41935-.2627-.44506-.5976-.96467-.773-1.18532-.2215-.27879-.645-.61839-.9443-.83763-.165-.12086-.3416-.24117-.4968-.33129-.072-.04182-.1743-.09779-.2857-.14044-.0509-.0195-.1545-.05642-.2853-.07202-.0775-.00926-.4727-.05404-.8156.25599-.2828.25575-.3241.57239-.3335.66301-.013.125-.0017.22936.006.28538.0164.1184.048.22824.0723.30499.0523.16466.1287.35151.2094.52881.1324.29054.3235.65794.5267.94787h-.6424c-.0737-.13667-.1557-.28026-.2378-.41935-.2627-.44506-.5976-.96467-.773-1.18532-.2215-.27879-.645-.61839-.9443-.83763-.165-.12086-.3416-.24117-.4968-.33129-.072-.04182-.1743-.09779-.2857-.14044-.0509-.0195-.1545-.05642-.2853-.07202-.0775-.00926-.4727-.05404-.8156.25599-.2828.25576-.3241.57239-.3335.66301-.013.125-.0017.22936.006.28538.0164.1184.048.22824.0723.305.0523.16465.1287.3515.2094.5288.1324.29054.3235.65795.5267.94787h-1.1367c-.0737-.13668-.1558-.28027-.2378-.41936-.2627-.44506-.5977-.96467-.773-1.18533Z"/>
  <path fill="currentColor" d="M3.00001 7.00003c-.55229 0-1 .44772-1 1 0 .55229.44771 1 1 1h4c.55228 0 1-.44771 1-1 0-.55228-.44772-1-1-1h-4Zm2 2.99997c-.55229 0-1 .4477-1 1s.44771 1 1 1h1c.55228 0 1-.4477 1-1s-.44772-1-1-1h-1Zm-2 3c-.30399 0-.59147.1383-.78123.3758-.18976.2375-.2612.5484-.19413.8449.27848 1.231 1.1312 2.2553 2.23009 3.035.92161.6539 2.06605 1.1737 3.34395 1.5346V19c0 .5523.44772 1 1 1h6.80261c.5523 0 1-.4477 1-1v-.2097c1.2779-.3609 2.4224-.8807 3.344-1.5346 1.0989-.7797 1.9516-1.804 2.2301-3.035.067-.2965-.0044-.6074-.1942-.8449C21.5915 13.1383 21.304 13 21 13H3.00001Z"/>
</svg>
