<svg xmlns="http://www.w3.org/2000/svg" width="24" height="24" fill="none" viewBox="0 0 24 24">
  <path fill="currentColor" d="M9.00004 4c0-1.10457.89543-2 1.99996-2h2c1.1046 0 2 .89543 2 2v3H9.00004V4Zm0 5v.41924c-.87786.56584-1.41239 1.28066-1.69868 2.13956-.30199.9059-.30165 1.9228-.30134 2.8523L7.00004 20c0 1.1047.89549 2 2 2H15c1.1046 0 2-.8954 2-2v-1h-4.9999c-.5523 0-1-.4477-1-1v-5c0-.5523.4477-1 1-1h4.8213c-.034-.1494-.0745-.2967-.1227-.4412-.2863-.8589-.8208-1.57372-1.6987-2.13956V9H9.00004Z"/>
  <path fill="currentColor" d="M17 14h-3.9999v3H17v-3Z"/>
</svg>
