<svg xmlns="http://www.w3.org/2000/svg" width="24" height="24" fill="currentColor" viewBox="0 0 24 24">
  <path fill-rule="evenodd" d="M2 6a2 2 0 0 1 2-2h16a2 2 0 0 1 2 2v12a2 2 0 0 1-2 2H4a2 2 0 0 1-2-2V6Zm6.962 4.856a1.475 1.475 0 0 1 1.484.066A1 1 0 1 0 11.53 9.24a3.475 3.475 0 1 0-.187 5.955 1 1 0 1 0-.976-1.746 1.474 1.474 0 1 1-1.405-2.593Zm6.186 0a1.475 1.475 0 0 1 1.484.066 1 1 0 1 0 1.084-1.682 3.475 3.475 0 1 0-.187 5.955 1 1 0 1 0-.976-1.746 1.474 1.474 0 1 1-1.405-2.593Z" clip-rule="evenodd"/>
</svg>
