<svg xmlns="http://www.w3.org/2000/svg" width="24" height="24" fill="currentColor" viewBox="0 0 24 24">
  <path d="M9.5 13C7.567 13 6 14.567 6 16.5S7.567 20 9.5 20s3.5-1.567 3.5-3.5S11.433 13 9.5 13Z"/>
  <path fill-rule="evenodd" d="M11 5c0-.55228.4477-1 1-1 1.5438 0 3.3242.75435 4.5149 2.16836 1.2348 1.46632 1.7886 3.5834.9338 6.14784-.1747.524-.741.8071-1.2649.6325-.524-.1747-.8071-.741-.6325-1.2649.6452-1.93556.199-3.31848-.5662-4.22716C14.4407 6.8102 13.7107 6.37433 13 6.15825V16.5c0 .5523-.4477 1-1 1s-1-.4477-1-1V5Z" clip-rule="evenodd"/>
</svg>
