<svg xmlns="http://www.w3.org/2000/svg" width="24" height="24" fill="currentColor" viewBox="0 0 24 24">
  <path d="M6.97825 3.99999c-.3729 0-.74128.08169-1.07926.23933-.32394.1511-.61243.36846-.84696.63787-1.81892 1.82189-2.35302 3.87423-1.89899 5.93671.43916 1.9949 1.77747 3.8929 3.45642 5.572 1.67897 1.6791 3.57614 3.0176 5.57034 3.4591 2.0612.4563 4.1141-.0726 5.9396-1.8853.2705-.2348.4888-.524.6405-.8489.1581-.3387.2401-.7081.2401-1.0819 0-.3739-.082-.7432-.2401-1.0819-.1516-.3247-.3696-.6137-.6398-.8483l-1.2098-1.2106c-.5043-.5041-1.1879-.7872-1.9007-.7872-.7128 0-1.3968.2835-1.9011.7876l-.6178.6181c-.1512.1513-.3563.2363-.5701.2363-.2138 0-.4189-.085-.5701-.2363l-1.85336-1.8545c-.15117-.1513-.23609-.3565-.23609-.5704 0-.214.08493-.4192.23613-.5705l.61812-.61851c.5037-.50461.7867-1.18868.7867-1.90191s-.2833-1.39767-.7871-1.90228L8.90499 4.8778c-.23462-.26969-.5233-.48727-.84749-.63848-.33798-.15764-.70636-.23933-1.07925-.23933Z"/>
  <path fill-rule="evenodd" d="M14.9925 3.99996c0-.55228.4477-.99999 1-.99999l3.03.00002c.5523 0 1 .44772 1 1v2.98135c0 .55228-.4478 1-1 1-.5523 0-1-.44772-1-1v-.58113l-3.3184 3.29112c-.3921.38887-1.0253.38627-1.4142-.00583-.3889-.39213-.3863-1.02529.0059-1.4142l3.2983-3.27133h-.6016c-.5523 0-1-.44772-1-1.00001Z" clip-rule="evenodd"/>
</svg>
