<svg xmlns="http://www.w3.org/2000/svg" width="24" height="24" fill="currentColor" viewBox="0 0 24 24">
  <path d="M5.707 4.293a1 1 0 0 0-1.414 1.414l14 14a1 1 0 0 0 1.414-1.414l-.004-.005C21.57 16.498 22 13.938 22 12a9.972 9.972 0 0 0-2.929-7.071 1 1 0 1 0-1.414 1.414A7.972 7.972 0 0 1 20 12c0 1.752-.403 3.636-1.712 4.873l-1.433-1.433C17.616 14.37 18 13.107 18 12c0-1.678-.69-3.197-1.8-4.285a1 1 0 1 0-1.4 1.428A3.985 3.985 0 0 1 16 12c0 .606-.195 1.335-.59 1.996L13 11.586V6.135c0-1.696-1.978-2.622-3.28-1.536L7.698 6.284l-1.99-1.991ZM4 8h.586L13 16.414v1.451c0 1.696-1.978 2.622-3.28 1.536L5.638 16H4a2 2 0 0 1-2-2v-4a2 2 0 0 1 2-2Z"/>
</svg>
