<svg xmlns="http://www.w3.org/2000/svg" fill="none" viewBox="0 0 24 24">
  <path fill="#2F2F38" d="M22 11.5a.5.5 0 0 0-1 0 1.4 1.4 0 0 1-1.4 1 1.5 1.5 0 0 1-1.4-1 .5.5 0 0 0-1 0 1.5 1.5 0 0 1-2.7 0v-2h2.2a2.6 2.6 0 0 0 2.7-2.7 2.7 2.7 0 0 0-2.7-2.6h-.5l-.1-.3a2.6 2.6 0 0 0-3.8-1.4l-.3.1-.3-.1a2.6 2.6 0 0 0-2.8 0c-.4.4-.8.8-1 1.4V4h-.6a2.7 2.7 0 0 0-2.7 2.6 2.6 2.6 0 0 0 2.7 2.7h2.3v2a1.3 1.3 0 0 1-1.3 1 1.6 1.6 0 0 1-1.5-1 .5.5 0 0 0-1 0 1.5 1.5 0 0 1-1.4 1 1.4 1.4 0 0 1-1.4-1 .5.5 0 0 0-.5-.4.5.5 0 0 0-.5.6v.4a10 10 0 1 0 20 0v-.5ZM8.3 15.7a1 1 0 1 1 2.1 0 1 1 0 0 1-2 0Zm1.6 3.7a2.1 2.1 0 0 1 4.2 0H10Zm4.7-2.7a1 1 0 1 1 0-2 1 1 0 0 1 0 2Z"/>
</svg>
