<svg xmlns="http://www.w3.org/2000/svg" width="25" height="25" fill="none" viewBox="0 0 25 25">
  <path fill="currentColor" d="M20.05 9.05a1 1 0 1 0-2 0h2Zm-1 3 1 .001v-.001h-1Zm-9 5-.001 1v-1Zm-3.534-1.466.707-.707-.707.707ZM5.05 12.05h-1v.001l1-.001Zm4 8a1 1 0 1 0 0 2v-2Zm6 2a1 1 0 1 0 0-2v2Zm-8-14a1 1 0 0 0 2 0h-2Zm6.667 4.886a1 1 0 1 0 .666 1.886l-.666-1.886ZM6.05 10.05a1 1 0 1 0-2 0h2Zm10 5.462a1 1 0 0 0 1 1.731l-1-1.731Zm-4 1.538h1a1 1 0 0 0-1-1v1ZM5.757 4.343a1 1 0 0 0-1.414 1.414l1.414-1.414Zm12.586 15.414a1 1 0 0 0 1.414-1.414l-1.414 1.414ZM18.05 9.05v3h2v-3h-2Zm0 2.999a4.006 4.006 0 0 1-1.174 2.828l1.415 1.414a6.006 6.006 0 0 0 1.759-4.24l-2-.002Zm-8 4.001a4.006 4.006 0 0 1-2.828-1.173L5.81 16.29a6.006 6.006 0 0 0 4.24 1.759l.002-2Zm-2.828-1.173a4.006 4.006 0 0 1-1.173-2.828l-2 .002a6.006 6.006 0 0 0 1.759 4.24l1.414-1.414ZM11.05 4.05h2v-2h-2v2Zm2 0a2 2 0 0 1 2 2h2a4 4 0 0 0-4-4v2Zm2 2v5h2v-5h-2Zm-6 0a2 2 0 0 1 2-2v-2a4 4 0 0 0-4 4h2Zm0 16h3v-2h-3v2Zm3 0h3v-2h-3v2Zm-3-14v-2h-2v2h2Zm6 3a2 2 0 0 1-1.333 1.886l.666 1.886a4.001 4.001 0 0 0 2.667-3.772h-2Zm-9 1v-2h-2v2h2Zm10.826 2.827a3.984 3.984 0 0 1-.827.635l1.001 1.731c.45-.26.867-.579 1.24-.952l-1.413-1.414ZM4.344 5.757l14 14 1.414-1.414-14-14-1.414 1.414ZM12.05 16.05h-2v2h2v-2Zm-1 1v4h2v-4h-2Z"/>
</svg>
