<svg xmlns="http://www.w3.org/2000/svg" width="24" height="24" fill="none" viewBox="0 0 24 24">
  <path stroke="currentColor" stroke-linecap="round" stroke-linejoin="round" stroke-width="2" d="m17.0896 13.371 1.1431 1.1439c.1745.1461.3148.3287.4111.5349.0962.2063.1461.4312.1461.6588 0 .2276-.0499.4525-.1461.6587-.0963.2063-.4729.6251-.6473.7712-3.1173 3.1211-6.7739 1.706-9.90477-1.4254-3.13087-3.1313-4.54323-6.7896-1.41066-9.90139.62706-.61925 1.71351-1.14182 2.61843-.23626l1.1911 1.19193c1.1911 1.19194.3562 1.93533-.4926 2.80371-.92477.92481-.65643 1.72741 0 2.38391l1.8713 1.8725c.3159.3161.7443.4936 1.191.4936.4468 0 .8752-.1775 1.1911-.4936.8624-.8261 1.6952-1.6004 2.8382-.4565Zm-2.2152-4.39103 2.1348-2.13485m0 0 2.1597-1.90738m-2.1597 1.90738 2.1597 2.15076m-2.1597-2.15076-2.1348-1.90738"/>
</svg>
