<svg xmlns="http://www.w3.org/2000/svg" width="24" height="24" fill="none" viewBox="0 0 24 24">
  <path stroke="currentColor" stroke-linecap="round" stroke-linejoin="round" stroke-width="2" d="M12 10.0419c-1.3902 0-1.3935-1.1249-4.20643-1.037-1.73056.05408-3.15551 2.2303-2.71168 5.3081C5.35949 16.2381 6.98619 21 8.99172 21c2.00548 0 2.07358-.8508 3.00828-.8508.9347 0 .8551.8508 3.0083.8508s3.6322-4.7619 3.9098-6.687c.4438-3.0778-.9811-5.25402-2.7117-5.3081-2.8129-.0879-2.8162 1.037-4.2064 1.037Zm2.3598-4.2126c-.8779.74829-1.8612.71957-2.7221.71957 0-.62576.0792-1.94012.8609-2.76911.7817-.82898 2.1271-.7664 2.6434-.7664 0 .59448.0956 2.06766-.7822 2.81594Z"/>
</svg>
