<svg xmlns="http://www.w3.org/2000/svg" width="24" height="24" fill="none" viewBox="0 0 24 24">
  <path stroke="currentColor" stroke-linecap="round" stroke-linejoin="round" stroke-width="2" d="M18.011 13H20c-.367 2.5551-2.32 4.6825-4.9766 5.6162V20H8.97661v-1.3838C6.31996 17.6825 4.36697 15.5551 4 13h14.011Zm0 0c1.0995-.0059 1.989-.8991 1.989-2 0-.8637-.5475-1.59948-1.3143-1.87934M18.011 13H18m0-3.99997c.2409 0 .4718.04258.6857.12063m0 0c.8367-1.0335.7533-2.67022-.2802-3.50694-1.0335-.83672-2.5496-.6772-3.3864.35631-.293-1.50236-1.7485-2.15377-3.2509-1.8607-1.5023.29308-2.48263 1.74856-2.18956 3.25092C8.9805 6.17263 7.6182 5.26418 6.15462 6.00131 4.967 6.59945 4.45094 8.19239 5.04909 9.38002m0 0C4.37083 9.66467 4 10.3357 4 11.1174 4 12.1571 4.84288 13 5.88263 13m-.83354-3.61998c.2866-.12029 1.09613-.40074 2.04494.3418m5.27497-.89091c1.0047-.4589 2.1913-.01641 2.6502.98832"/>
</svg>
