<svg xmlns="http://www.w3.org/2000/svg" width="24" height="24" fill="none" viewBox="0 0 24 24">
  <path stroke="currentColor" stroke-linecap="round" stroke-linejoin="round" stroke-width="2" d="m4 12 2.66667-1 2.66666 1L12 11l2.6667 1 2.6666-1L20 12m-1 5H5v1c0 1.1046.89543 2 2 2h10c1.1046 0 2-.8954 2-2v-1ZM5 9.00003h14v-1c0-2.20914-1.7909-4-4-4H9c-2.20914 0-4 1.79086-4 4v1ZM18.5 14h-13c-.82843 0-1.5.6716-1.5 1.5 0 .8285.67157 1.5 1.5 1.5h13c.8284 0 1.5-.6715 1.5-1.5 0-.8284-.6716-1.5-1.5-1.5Z"/>
</svg>
