<svg xmlns="http://www.w3.org/2000/svg" width="24" height="24" fill="none" viewBox="0 0 24 24">
  <path stroke="currentColor" stroke-linecap="round" stroke-linejoin="round" stroke-width="2" d="M7.99999 10.8571 12 13.1428m-4.00001-2.2857L4 13.1428m3.99999-2.2857.00004-4.57139M12 13.1428v4.5715m0-4.5715-4.00001 2.2857M12 13.1428l4-2.2857m-4 2.2857V8.57143m0 4.57137 4 2.2858m-4 2.2857L7.99999 20M12 17.7143 16 20m-8.00001 0L4 17.7143v-4.5715M7.99999 20v-4.5715M4 13.1428l3.99999 2.2857M16 6.28571 12 4 8.00003 6.28571m7.99997 0v4.57139m0-4.57139-4 2.28572m4 2.28567 4 2.2858M8.00003 6.28571 12 8.57143m8 4.57147v4.5714L16 20m4-6.8571-4 2.2857M16 20v-4.5714"/>
</svg>
