<svg xmlns="http://www.w3.org/2000/svg" width="24" height="24" fill="none" viewBox="0 0 24 24">
  <path stroke="currentColor" stroke-linecap="round" stroke-linejoin="round" stroke-width="2" d="M9.83892 12.4543s1.24988-3.08822-.21626-5.29004C8.15656 4.96245 4.58671 4.10885 4.39794 4.2436c-.18877.13476-1.11807 3.32546.34803 5.52727 1.4661 2.20183 5.09295 2.68343 5.09295 2.68343Zm0 0C10.3389 13.4543 12 15 12 18v2c0-2-.4304-3.4188 2.0696-5.9188m0 0s-.4894-2.7888 1.1206-4.35788c1.6101-1.56907 4.4903-1.54682 4.6701-1.28428.1798.26254.4317 2.84376-1.0809 4.31786-1.61 1.5691-4.7098 1.3243-4.7098 1.3243Z"/>
</svg>
