<svg xmlns="http://www.w3.org/2000/svg" width="24" height="24" fill="none" viewBox="0 0 24 24">
  <path stroke="currentColor" stroke-linecap="round" stroke-linejoin="round" stroke-width="2" d="M21 12c0 4.9706-4.0294 9-9 9m9-9c0-4.97056-4.0294-9-9-9m9 9h-5m-4 9c-4.97056 0-9-4.0294-9-9m9 9v-5m-9-4c0-4.97056 4.02944-9 9-9m-9 9h5m4-9v5M8 3.93552V8m0 0v4m0-4H3.93552M8 8h4m-4 4v4m0-4h4m-4 4v4.0645M8 16H3.93552M8 16h4m0-8v4m0-4h4m-4 4v4m0-4h4m-4 4h4m0-12.06448V8m0 0v4m0-4h4.0645M16 12v4m0 0v4.0645M16 16h4.0645"/>
</svg>
