<svg xmlns="http://www.w3.org/2000/svg" width="24" height="24" fill="currentColor" viewBox="0 0 24 24">
  <path fill-rule="evenodd" d="M9.484 6.743c.41-.368.443-1 .077-1.41a.99.99 0 0 0-1.405-.078L2.67 10.203l-.007.006A2.048 2.048 0 0 0 2 11.721a2.058 2.058 0 0 0 .662 1.51l5.584 5.09a.99.99 0 0 0 1.405-.07 1.003 1.003 0 0 0-.07-1.412l-5.577-5.082a.05.05 0 0 1 0-.072l5.48-4.942Zm6.543 9.199v-.42a4.168 4.168 0 0 1 2.715 2.415c.154.382.44.695.806.88a1.683 1.683 0 0 0 2.167-.571c.214-.322.312-.707.279-1.092V15.88c0-3.77-2.526-7.039-5.966-7.573V7.57a1.957 1.957 0 0 0-.994-1.838 1.931 1.931 0 0 0-2.153.184L7.8 10.164a.753.753 0 0 0-.012.011l-.011.01a2.098 2.098 0 0 0-.703 1.57 2.108 2.108 0 0 0 .726 1.59l5.08 4.25a1.933 1.933 0 0 0 2.929-.614c.167-.32.242-.68.218-1.04Z" clip-rule="evenodd"/>
</svg>
