<svg xmlns="http://www.w3.org/2000/svg" fill="none" viewBox="0 0 16 20">
  <g fill="#2F2F38">
    <path d="M5 5V.13a2.96 2.96 0 0 0-1.293.749L.879 3.707A2.96 2.96 0 0 0 .13 5H5Z"/>
    <path d="M14.067 0H7v5a2 2 0 0 1-2 2H0v11a1.969 1.969 0 0 0 1.933 2h12.134A1.97 1.97 0 0 0 16 18V2a1.97 1.97 0 0 0-1.933-2ZM6.709 13.809a1 1 0 1 1-1.418 1.409l-2-2.013a1 1 0 0 1 0-1.412l2-2a1 1 0 0 1 1.414 1.414L5.412 12.5l1.297 1.309Zm6-.6-2 2.013a1 1 0 1 1-1.418-1.409l1.3-1.307-1.295-1.295a1 1 0 0 1 1.414-1.414l2 2a1 1 0 0 1-.001 1.408v.004Z"/>
  </g>
</svg>
