<svg xmlns="http://www.w3.org/2000/svg" fill="none" viewBox="0 0 19 17">
  <mask id="a" fill="#fff">
    <path d="M5.5 7A3.5 3.5 0 1 1 9 3.5M5.5 16H0v-2a4 4 0 0 1 4-4m14.5 0h-1.12a4.441 4.441 0 0 0-.579-1.387l.8-.795a.5.5 0 0 0 0-.707l-.707-.707a.5.5 0 0 0-.707 0l-.795.8A4.443 4.443 0 0 0 14 6.62V5.5a.5.5 0 0 0-.5-.5h-1a.5.5 0 0 0-.5.5v1.12c-.492.113-.96.309-1.387.579l-.795-.795a.5.5 0 0 0-.707 0l-.707.707a.5.5 0 0 0 0 .707l.8.8c-.272.424-.47.892-.584 1.382H7.5a.5.5 0 0 0-.5.5v1a.5.5 0 0 0 .5.5h1.12c.113.492.309.96.579 1.387l-.795.795a.5.5 0 0 0 0 .707l.707.707a.5.5 0 0 0 .707 0l.8-.8c.424.272.892.47 1.382.584v1.12a.5.5 0 0 0 .5.5h1a.5.5 0 0 0 .5-.5v-1.12c.492-.113.96-.309 1.387-.579l.795.8a.5.5 0 0 0 .707 0l.707-.707a.5.5 0 0 0 0-.707l-.8-.795c.273-.427.47-.898.584-1.392h1.12a.5.5 0 0 0 .5-.5v-1a.5.5 0 0 0-.5-.5ZM13 13.5a2.5 2.5 0 1 1 0-5 2.5 2.5 0 0 1 0 5Z"/>
  </mask>
  <path fill="#2F2F38" d="M5.5 9a2 2 0 1 0 0-4v4ZM7 3.5a2 2 0 1 0 4 0H7ZM5.5 18a2 2 0 1 0 0-4v4ZM0 16h-2a2 2 0 0 0 2 2v-2Zm4-4a2 2 0 1 0 0-4v4Zm13.38-2-1.95.447.357 1.553h1.593v-2Zm-.579-1.387-1.41-1.419-1.14 1.133.861 1.358 1.689-1.072Zm.8-.795 1.41 1.419.004-.005-1.414-1.414Zm0-.707 1.414-1.414-1.414 1.414Zm-.707-.707 1.414-1.414-1.414 1.414Zm-.707 0L14.773 4.99l-.005.004 1.419 1.41Zm-.795.8L14.316 8.89l1.359.867 1.136-1.143-1.419-1.41ZM14 6.62h-2v1.591l1.55.358L14 6.62Zm-2 0 .447 1.95L14 8.212V6.62h-2Zm-1.387.579L9.199 8.613l1.133 1.133 1.352-.858-1.071-1.689Zm-.795-.795 1.414-1.414-1.414 1.414Zm-.707 0L7.697 4.99 9.11 6.404Zm-.707.707L6.99 5.697l1.414 1.414Zm0 .707L6.99 9.232l1.414-1.414Zm.8.8 1.684 1.078.868-1.355-1.138-1.137-1.414 1.414ZM8.62 10v2h1.586l.361-1.544L8.62 10Zm0 2 1.95-.447L10.212 10H8.62v2Zm.579 1.387 1.414 1.414 1.133-1.133-.858-1.352-1.689 1.071Zm-.795.795L6.99 12.768l1.414 1.414Zm0 .707L6.99 16.303l1.414-1.414Zm.707.707L7.697 17.01l1.414-1.414Zm.707 0 1.414 1.414-1.414-1.414Zm.8-.8 1.078-1.684-1.355-.868-1.137 1.138 1.414 1.414ZM12 15.38h2v-1.586l-1.544-.361L12 15.38Zm2 0-.447-1.95-1.553.357v1.593h2Zm1.387-.579 1.419-1.41-1.133-1.14-1.357.861 1.071 1.689Zm.795.8-1.419 1.41.005.004 1.414-1.414Zm.707 0 1.414 1.414-1.414-1.414Zm.707-.707 1.414 1.414-1.414-1.414Zm0-.707 1.414-1.414-.004-.005-1.41 1.419Zm-.8-.795-1.686-1.076-.867 1.359 1.143 1.136 1.41-1.419ZM17.38 12v-2h-1.591l-.358 1.55 1.949.45ZM5.5 5a1.5 1.5 0 0 1-.833-.253L2.444 8.073A5.5 5.5 0 0 0 5.5 9V5Zm-.833-.253a1.5 1.5 0 0 1-.553-.673L.42 5.604a5.5 5.5 0 0 0 2.025 2.47l2.223-3.327Zm-.553-.673a1.5 1.5 0 0 1-.085-.867l-3.923-.78a5.5 5.5 0 0 0 .313 3.178l3.695-1.531Zm-.085-.867a1.5 1.5 0 0 1 .41-.768L1.611-.389A5.5 5.5 0 0 0 .106 2.427l3.923.78Zm.41-.768a1.5 1.5 0 0 1 .768-.41l-.78-3.923A5.5 5.5 0 0 0 1.611-.39l2.828 2.828Zm.768-.41a1.5 1.5 0 0 1 .867.085l1.53-3.695a5.5 5.5 0 0 0-3.177-.313l.78 3.923Zm.867.085a1.5 1.5 0 0 1 .673.553L10.073.444A5.5 5.5 0 0 0 7.605-1.58L6.074 2.114Zm.673.553A1.5 1.5 0 0 1 7 3.5h4a5.5 5.5 0 0 0-.927-3.056L6.747 2.667ZM5.5 14H0v4h5.5v-4ZM2 16v-2h-4v2h4Zm0-2a2 2 0 0 1 .586-1.414L-.243 9.757A6 6 0 0 0-2 14h4Zm.586-1.414A2 2 0 0 1 4 12V8A6 6 0 0 0-.243 9.757l2.829 2.829ZM18.5 8h-1.12v4h1.12V8Zm.83 1.553a6.444 6.444 0 0 0-.84-2.012l-3.378 2.144c.149.234.257.492.319.762l3.898-.894Zm-1.12.479.8-.795-2.819-2.838-.8.795 2.82 2.838Zm.805-.8a2.5 2.5 0 0 0 .732-1.767h-4c0-.398.158-.78.44-1.061l2.828 2.828Zm.732-1.767a2.5 2.5 0 0 0-.732-1.768l-2.828 2.828a1.5 1.5 0 0 1-.44-1.06h4Zm-.732-1.768-.707-.707-2.828 2.828.707.707 2.828-2.828Zm-.707-.707a2.5 2.5 0 0 0-1.767-.732v4a1.5 1.5 0 0 1-1.061-.44l2.828-2.828Zm-1.767-.732a2.5 2.5 0 0 0-1.768.732l2.828 2.828a1.5 1.5 0 0 1-1.06.44v-4Zm-1.773.736-.795.8 2.838 2.82.795-.8-2.838-2.82Zm1.7.524a6.443 6.443 0 0 0-2.019-.847l-.898 3.898c.271.063.53.171.765.321l2.152-3.372ZM16 6.62V5.5h-4v1.12h4Zm0-1.12a2.5 2.5 0 0 0-.732-1.768l-2.829 2.829A1.5 1.5 0 0 1 12 5.5h4Zm-.732-1.768A2.5 2.5 0 0 0 13.5 3v4a1.5 1.5 0 0 1-1.06-.44l2.828-2.828ZM13.5 3h-1v4h1V3Zm-1 0a2.5 2.5 0 0 0-1.768.732l2.829 2.829A1.5 1.5 0 0 1 12.5 7V3Zm-1.768.732A2.5 2.5 0 0 0 10 5.5h4a1.5 1.5 0 0 1-.44 1.06l-2.828-2.828ZM10 5.5v1.12h4V5.5h-4Zm1.553-.83a6.443 6.443 0 0 0-2.012.84l2.143 3.378c.235-.149.493-.257.763-.319l-.894-3.898Zm.474 1.115-.795-.795-2.828 2.828.795.795 2.828-2.828Zm-.795-.795a2.5 2.5 0 0 0-1.768-.732v4a1.5 1.5 0 0 1-1.06-.44l2.828-2.828Zm-1.768-.732a2.5 2.5 0 0 0-1.767.732l2.828 2.828a1.5 1.5 0 0 1-1.06.44v-4Zm-1.767.732-.707.707 2.828 2.828.707-.707L7.697 4.99Zm-.707.707a2.5 2.5 0 0 0-.732 1.768h4a1.5 1.5 0 0 1-.44 1.06L6.99 5.697Zm-.732 1.768a2.5 2.5 0 0 0 .732 1.767l2.828-2.828a1.5 1.5 0 0 1 .44 1.06h-4Zm.732 1.767.8.8 2.828-2.828-.8-.8L6.99 9.232Zm.53-1.692a6.443 6.443 0 0 0-.847 2.004l3.894.912a2.44 2.44 0 0 1 .321-.76L7.52 7.54Zm1.1.46H7.5v4h1.12V8ZM7.5 8a2.5 2.5 0 0 0-1.768.732l2.829 2.829A1.5 1.5 0 0 1 7.5 12V8Zm-1.768.732A2.5 2.5 0 0 0 5 10.5h4a1.5 1.5 0 0 1-.44 1.06L5.733 8.733ZM5 10.5v1h4v-1H5Zm0 1a2.5 2.5 0 0 0 .732 1.768l2.829-2.829A1.5 1.5 0 0 1 9 11.5H5Zm.732 1.768A2.5 2.5 0 0 0 7.5 14v-4a1.5 1.5 0 0 1 1.06.44l-2.828 2.828ZM7.5 14h1.12v-4H7.5v4Zm-.83-1.553c.164.714.448 1.394.84 2.012l3.378-2.143a2.443 2.443 0 0 1-.319-.763l-3.898.894Zm1.115-.474-.795.795 2.828 2.828.795-.795-2.828-2.828Zm-.795.795a2.5 2.5 0 0 0-.732 1.768h4a1.5 1.5 0 0 1-.44 1.06L6.99 12.768Zm-.732 1.768a2.5 2.5 0 0 0 .732 1.767l2.828-2.828a1.5 1.5 0 0 1 .44 1.06h-4Zm.732 1.767.707.707 2.828-2.828-.707-.707-2.828 2.828Zm.707.707a2.5 2.5 0 0 0 1.767.732v-4a1.5 1.5 0 0 1 1.061.44L7.697 17.01Zm1.767.732a2.5 2.5 0 0 0 1.768-.732l-2.828-2.828a1.5 1.5 0 0 1 1.06-.44v4Zm1.768-.732.8-.8-2.828-2.828-.8.8 2.828 2.828Zm-1.692-.53c.615.394 1.293.68 2.004.847l.912-3.894a2.439 2.439 0 0 1-.76-.321L9.54 16.48Zm.46-1.1v1.12h4v-1.12h-4Zm0 1.12a2.5 2.5 0 0 0 .732 1.768l2.829-2.829A1.5 1.5 0 0 1 14 16.5h-4Zm.732 1.768A2.5 2.5 0 0 0 12.5 19v-4a1.5 1.5 0 0 1 1.06.44l-2.828 2.828ZM12.5 19h1v-4h-1v4Zm1 0a2.5 2.5 0 0 0 1.768-.732l-2.829-2.829A1.5 1.5 0 0 1 13.5 15v4Zm1.768-.732A2.5 2.5 0 0 0 16 16.5h-4c0-.398.158-.78.44-1.06l2.828 2.828ZM16 16.5v-1.12h-4v1.12h4Zm-1.553.83a6.445 6.445 0 0 0 2.012-.84l-2.143-3.378a2.443 2.443 0 0 1-.763.319l.894 3.898Zm-.479-1.12.795.8 2.838-2.819-.795-.8-2.838 2.82Zm.8.805a2.5 2.5 0 0 0 1.767.732v-4a1.5 1.5 0 0 1 1.061.44l-2.828 2.828Zm1.767.732a2.5 2.5 0 0 0 1.768-.732l-2.828-2.828a1.5 1.5 0 0 1 1.06-.44v4Zm1.768-.732.707-.707-2.828-2.828-.707.707 2.828 2.828Zm.707-.707a2.5 2.5 0 0 0 .732-1.768h-4c0-.397.158-.779.44-1.06l2.828 2.828Zm.732-1.768a2.5 2.5 0 0 0-.732-1.767l-2.828 2.828a1.5 1.5 0 0 1-.44-1.06h4Zm-.736-1.772-.8-.795-2.82 2.838.8.795 2.82-2.838Zm-.524 1.7c.395-.62.682-1.303.847-2.019l-3.898-.898c-.063.271-.171.53-.321.765l3.372 2.152ZM17.38 14h1.12v-4h-1.12v4Zm1.12 0a2.5 2.5 0 0 0 1.768-.732l-2.829-2.829A1.5 1.5 0 0 1 18.5 10v4Zm1.768-.732A2.5 2.5 0 0 0 21 11.5h-4c0-.398.158-.78.44-1.06l2.828 2.828ZM21 11.5v-1h-4v1h4Zm0-1a2.5 2.5 0 0 0-.732-1.768l-2.829 2.829A1.5 1.5 0 0 1 17 10.5h4Zm-.732-1.768A2.5 2.5 0 0 0 18.5 8v4a1.5 1.5 0 0 1-1.06-.44l2.828-2.828ZM13 11.5a.5.5 0 0 1-.278-.084L10.5 14.742a4.5 4.5 0 0 0 2.5.758v-4Zm-.278-.084a.5.5 0 0 1-.184-.225l-3.695 1.531a4.5 4.5 0 0 0 1.657 2.02l2.222-3.326Zm-.184-.225a.5.5 0 0 1-.028-.289l-3.924-.78a4.5 4.5 0 0 0 .257 2.6l3.695-1.53Zm-.028-.289a.5.5 0 0 1 .136-.256L9.818 7.818a4.5 4.5 0 0 0-1.232 2.304l3.924.78Zm.136-.256a.5.5 0 0 1 .256-.136l-.78-3.924a4.5 4.5 0 0 0-2.304 1.232l2.828 2.828Zm.256-.136a.5.5 0 0 1 .29.028l1.53-3.695a4.5 4.5 0 0 0-2.6-.257l.78 3.924Zm.29.028a.5.5 0 0 1 .224.184L16.742 8.5a4.5 4.5 0 0 0-2.02-1.657l-1.53 3.695Zm.224.184A.5.5 0 0 1 13.5 11h4a4.5 4.5 0 0 0-.758-2.5l-3.326 2.222ZM13.5 11a.5.5 0 0 1-.146.354l2.828 2.828A4.5 4.5 0 0 0 17.5 11h-4Zm-.146.354A.5.5 0 0 1 13 11.5v4a4.5 4.5 0 0 0 3.182-1.318l-2.828-2.828Z" mask="url(#a)"/>
</svg>
