<svg xmlns="http://www.w3.org/2000/svg" width="24" height="24" fill="currentColor" viewBox="0 0 24 24">
  <path fill-rule="evenodd" d="M10.226 6.09A23.41 23.41 0 0 0 8.03 8.03a1 1 0 0 0 1.414 1.414c.85-.85 1.73-1.593 2.601-2.217a21.06 21.06 0 0 1 2.6 2.217A1 1 0 1 0 16.06 8.03a23.413 23.413 0 0 0-2.196-1.94c.981-.524 1.893-.86 2.676-1.006 1.134-.212 1.795.002 2.13.337.462.463.666 1.566-.037 3.425-.668 1.765-2.04 3.852-3.987 5.8-1.948 1.948-4.035 3.32-5.8 3.987-1.86.703-2.962.5-3.425.036-.332-.331-.546-.983-.342-2.102.143-.787.48-1.71 1.01-2.703A23.425 23.425 0 0 0 8.03 16.06a1 1 0 0 0 1.414-1.414c-1.948-1.948-3.32-4.035-3.987-5.8-.703-1.86-.499-2.962-.036-3.425.334-.334.995-.55 2.13-.337.782.146 1.694.482 2.675 1.005Zm1.819-1.262c1.421-.87 2.84-1.47 4.128-1.71 1.43-.267 2.903-.119 3.91.889 1.365 1.364 1.173 3.556.42 5.547a14.939 14.939 0 0 1-1.24 2.491c.877 1.434 1.48 2.867 1.716 4.165.258 1.417.103 2.874-.896 3.873-1.003 1.004-2.47 1.155-3.893.893-1.292-.238-2.718-.84-4.145-1.714a14.94 14.94 0 0 1-2.491 1.241c-1.991.753-4.183.944-5.547-.42-1-.999-1.154-2.456-.896-3.873.235-1.298.839-2.73 1.717-4.165a14.938 14.938 0 0 1-1.241-2.491c-.753-1.991-.944-4.183.42-5.547 1.007-1.008 2.48-1.156 3.91-.89 1.287.24 2.707.84 4.128 1.71ZM13.865 18c.986.526 1.903.863 2.688 1.008 1.127.208 1.783-.007 2.116-.34.332-.331.546-.983.343-2.102-.143-.787-.481-1.71-1.011-2.703a23.424 23.424 0 0 1-1.94 2.196A23.396 23.396 0 0 1 13.863 18Z" clip-rule="evenodd"/>
  <path d="M14 12a2 2 0 1 1-4 0 2 2 0 0 1 4 0Z"/>
  <path fill-rule="evenodd" stroke="#383838" d="M10.226 6.09A23.41 23.41 0 0 0 8.03 8.03a1 1 0 0 0 1.414 1.414c.85-.85 1.73-1.593 2.601-2.217a21.06 21.06 0 0 1 2.6 2.217A1 1 0 1 0 16.06 8.03a23.413 23.413 0 0 0-2.196-1.94c.981-.524 1.893-.86 2.676-1.006 1.134-.212 1.795.002 2.13.337.462.463.666 1.566-.037 3.425-.668 1.765-2.04 3.852-3.987 5.8-1.948 1.948-4.035 3.32-5.8 3.987-1.86.703-2.962.5-3.425.036-.332-.331-.546-.983-.342-2.102.143-.787.48-1.71 1.01-2.703A23.425 23.425 0 0 0 8.03 16.06a1 1 0 0 0 1.414-1.414c-1.948-1.948-3.32-4.035-3.987-5.8-.703-1.86-.499-2.962-.036-3.425.334-.334.995-.55 2.13-.337.782.146 1.694.482 2.675 1.005Zm1.819-1.262c1.421-.87 2.84-1.47 4.128-1.71 1.43-.267 2.903-.119 3.91.889 1.365 1.364 1.173 3.556.42 5.547a14.939 14.939 0 0 1-1.24 2.491c.877 1.434 1.48 2.867 1.716 4.165.258 1.417.103 2.874-.896 3.873-1.003 1.004-2.47 1.155-3.893.893-1.292-.238-2.718-.84-4.145-1.714a14.94 14.94 0 0 1-2.491 1.241c-1.991.753-4.183.944-5.547-.42-1-.999-1.154-2.456-.896-3.873.235-1.298.839-2.73 1.717-4.165a14.938 14.938 0 0 1-1.241-2.491c-.753-1.991-.944-4.183.42-5.547 1.007-1.008 2.48-1.156 3.91-.89 1.287.24 2.707.84 4.128 1.71ZM13.865 18c.986.526 1.903.863 2.688 1.008 1.127.208 1.783-.007 2.116-.34.332-.331.546-.983.343-2.102-.143-.787-.481-1.71-1.011-2.703a23.424 23.424 0 0 1-1.94 2.196A23.396 23.396 0 0 1 13.863 18Z" clip-rule="evenodd"/>
  <path stroke="#383838" d="M14 12a2 2 0 1 1-4 0 2 2 0 0 1 4 0Z"/>
</svg>
