<svg xmlns="http://www.w3.org/2000/svg" fill="none" viewBox="0 0 24 24">
  <path fill="#383838" fill-rule="evenodd" d="M10.2 6 8 8a1 1 0 0 0 1.4 1.4A21 21 0 0 1 12 7.2a21 21 0 0 1 2.6 2.2A1 1 0 0 0 16.1 8l-2.2-2 2.6-1c1.2-.1 1.8 0 2.2.4.4.5.6 1.6 0 3.4-.7 1.8-2.1 3.9-4 5.8-2 2-4 3.4-5.9 4-1.8.7-3 .5-3.4 0-.3-.3-.5-1-.3-2a9 9 0 0 1 1-2.7L8 16a1 1 0 0 0 1.3-1.5c-1.9-1.9-3.3-4-4-5.8-.6-1.8-.4-3 0-3.4.4-.3 1-.5 2.2-.3.7.1 1.6.5 2.6 1ZM12 4.9c1.5-.8 2.9-1.4 4.2-1.7C17.6 3 19 3 20 4.1c1.3 1.3 1.2 3.5.4 5.5a15 15 0 0 1-1.2 2.4c.8 1.5 1.4 3 1.7 4.2.2 1.4 0 2.9-1 3.9s-2.4 1.1-3.8.9c-1.3-.3-2.7-.9-4.2-1.7l-2.4 1.2c-2 .8-4.2 1-5.6-.4-1-1-1.1-2.5-.9-3.9A12 12 0 0 1 4.7 12a15 15 0 0 1-1.2-2.4c-.8-2-1-4.2.4-5.6C5 3 6.5 3 8 3.1c1.2.3 2.6.9 4 1.7ZM14 18a9 9 0 0 0 2.7 1c1 .2 1.7 0 2-.3.4-.4.6-1 .4-2.1a9 9 0 0 0-1-2.7A23.4 23.4 0 0 1 14 18Z" clip-rule="evenodd"/>
  <path fill="#383838" d="M14 12a2 2 0 1 1-4 0 2 2 0 0 1 4 0Z"/>
  <path stroke="currentColor" d="M10.2 6 8 8a1 1 0 0 0 1.4 1.4A21 21 0 0 1 12 7.2a21 21 0 0 1 2.6 2.2A1 1 0 0 0 16.1 8l-2.2-2 2.6-1c1.2-.1 1.8 0 2.2.4.4.5.6 1.6 0 3.4-.7 1.8-2.1 3.9-4 5.8-2 2-4 3.4-5.9 4-1.8.7-3 .5-3.4 0-.3-.3-.5-1-.3-2a9 9 0 0 1 1-2.7L8 16a1 1 0 0 0 1.3-1.5c-1.9-1.9-3.3-4-4-5.8-.6-1.8-.4-3 0-3.4.4-.3 1-.5 2.2-.3.7.1 1.6.5 2.6 1ZM12 4.9c1.5-.8 2.9-1.4 4.2-1.7C17.6 3 19 3 20 4.1c1.3 1.3 1.2 3.5.4 5.5a15 15 0 0 1-1.2 2.4c.8 1.5 1.4 3 1.7 4.2.2 1.4 0 2.9-1 3.9s-2.4 1.1-3.8.9c-1.3-.3-2.7-.9-4.2-1.7l-2.4 1.2c-2 .8-4.2 1-5.6-.4-1-1-1.1-2.5-.9-3.9A12 12 0 0 1 4.7 12a15 15 0 0 1-1.2-2.4c-.8-2-1-4.2.4-5.6C5 3 6.5 3 8 3.1c1.2.3 2.6.9 4 1.7ZM14 18a9 9 0 0 0 2.7 1c1 .2 1.7 0 2-.3.4-.4.6-1 .4-2.1a9 9 0 0 0-1-2.7A23.4 23.4 0 0 1 14 18Z" clip-rule="evenodd"/>
  <path stroke="currentColor" d="M14 12a2 2 0 1 1-4 0 2 2 0 0 1 4 0Z"/>
</svg>
