<svg xmlns="http://www.w3.org/2000/svg" fill="none" viewBox="0 0 24 24">
  <path fill="#383838" d="M17.1 12.6v-1.8A5.4 5.4 0 0 0 13 5.6V3a1 1 0 0 0-2 0v2.4a5.4 5.4 0 0 0-4 5.5v1.8c0 2.4-1.9 3-1.9 4.2 0 .6 0 1.2.5 1.2h13c.5 0 .5-.6.5-1.2 0-1.2-1.9-1.8-1.9-4.2ZM6 6a1 1 0 0 1-.7-.3l-1-1a1 1 0 0 1 1.4-1.4l1 1A1 1 0 0 1 6 6Zm-2 4H3a1 1 0 0 1 0-2h1a1 1 0 1 1 0 2Zm14-4a1 1 0 0 1-.7-1.7l1-1a1 1 0 1 1 1.4 1.4l-1 1a1 1 0 0 1-.7.3Zm3 4h-1a1 1 0 1 1 0-2h1a1 1 0 1 1 0 2ZM8.8 19a3.5 3.5 0 0 0 6.4 0H8.8Z"/>
</svg>
