<svg xmlns="http://www.w3.org/2000/svg" fill="none" viewBox="0 0 20 20">
  <path fill="#2F2F38" d="M15.133 10.632v-1.8a5.406 5.406 0 0 0-4.154-5.262.955.955 0 0 0 .021-.106V1.1a1 1 0 0 0-2 0v2.364a.946.946 0 0 0 .021.106 5.406 5.406 0 0 0-4.154 5.262v1.8C4.867 13.018 3 13.614 3 14.807 3 15.4 3 16 3.538 16h12.924C17 16 17 15.4 17 14.807c0-1.193-1.867-1.789-1.867-4.175ZM4 4a1 1 0 0 1-.707-.293l-1-1a1 1 0 0 1 1.414-1.414l1 1A1 1 0 0 1 4 4ZM2 8H1a1 1 0 0 1 0-2h1a1 1 0 0 1 0 2Zm14-4a1 1 0 0 1-.707-1.707l1-1a1 1 0 1 1 1.414 1.414l-1 1A1 1 0 0 1 16 4Zm3 4h-1a1 1 0 1 1 0-2h1a1 1 0 1 1 0 2ZM6.823 17a3.453 3.453 0 0 0 6.354 0H6.823Z"/>
</svg>
