<svg xmlns="http://www.w3.org/2000/svg" width="24" height="24" fill="currentColor" viewBox="0 0 24 24">
  <path fill-rule="evenodd" d="M11 4a1 1 0 0 0-1 1v10h10.459l.522-3H16a1 1 0 1 1 0-2h5.33l.174-1H16a1 1 0 1 1 0-2h5.852l.117-.67v-.003A1.983 1.983 0 0 0 20.06 4H11ZM9 18c0-.35.06-.687.17-1h11.66c.11.313.17.65.17 1v1a1 1 0 0 1-1 1H10a1 1 0 0 1-1-1v-1Zm-6.991-7a17.8 17.8 0 0 0 .953 6.1c.198.54 1.61.9 2.237.9h1.34c.17 0 .339-.032.495-.095a1.24 1.24 0 0 0 .41-.27c.114-.114.2-.25.254-.396a1.01 1.01 0 0 0 .055-.456l-.242-2.185a1.073 1.073 0 0 0-.395-.71 1.292 1.292 0 0 0-.819-.286H5.291c-.12-.863-.17-1.732-.145-2.602-.024-.87.024-1.74.145-2.602H6.54c.302 0 .594-.102.818-.286a1.07 1.07 0 0 0 .396-.71l.24-2.185a1.01 1.01 0 0 0-.054-.456 1.088 1.088 0 0 0-.254-.397 1.223 1.223 0 0 0-.41-.269A1.328 1.328 0 0 0 6.78 4H4.307c-.3-.001-.592.082-.838.238a1.335 1.335 0 0 0-.531.634A17.127 17.127 0 0 0 2.008 11Z" clip-rule="evenodd"/>
</svg>
