<svg xmlns="http://www.w3.org/2000/svg" fill="none" viewBox="0 0 24 24">
  <path fill="#383838" d="M11 21V2.4a3.5 3.5 0 0 0-4.8 1.8A3.5 3.5 0 0 0 4 8l-.7 1.1-.1.4-.1.3a3.5 3.5 0 0 0 0 1.5A3.9 3.9 0 0 0 2 14v.9l.2.6a3.8 3.8 0 0 0 1 1.4 4 4 0 0 0 .6.5v.1A3.5 3.5 0 0 0 7 21a3.4 3.4 0 0 0 4.2.5 1 1 0 0 1-.2-.5Zm11-7.7v-.1a4 4 0 0 0-1-2 3.4 3.4 0 0 0-.2-1.7V9c-.3-.4-.5-.8-.8-1a3.4 3.4 0 0 0-.6-2.6 4 4 0 0 0-1.6-1.3A3.5 3.5 0 0 0 13 2.4V21c0 .2 0 .4-.2.5A3.4 3.4 0 0 0 17 21a3.5 3.5 0 0 0 3-3.5 5.4 5.4 0 0 0 .7-.5 4.2 4.2 0 0 0 .7-.9l.3-.5.2-.7v-.2a4 4 0 0 0 0-1.4Z"/>
</svg>
