<svg xmlns="http://www.w3.org/2000/svg" width="24" height="24" fill="currentColor" viewBox="0 0 24 24">
  <path fill-rule="evenodd" d="M5 5a1 1 0 0 0 1-1 1 1 0 1 1 2 0 1 1 0 0 0 1 1h1a1 1 0 0 0 1-1 1 1 0 1 1 2 0 1 1 0 0 0 1 1h1a1 1 0 0 0 1-1 1 1 0 1 1 2 0 1 1 0 0 0 1 1 2 2 0 0 1 2 2v1a1 1 0 0 1-1 1H4a1 1 0 0 1-1-1V7a2 2 0 0 1 2-2ZM3 19v-7a1 1 0 0 1 1-1h16a1 1 0 0 1 1 1v7a2 2 0 0 1-2 2H5a2 2 0 0 1-2-2Zm6.01-6a1 1 0 1 0-2 0 1 1 0 0 0 2 0Zm2 0a1 1 0 1 1 2 0 1 1 0 0 1-2 0Zm6 0a1 1 0 1 0-2 0 1 1 0 0 0 2 0Zm-10 4a1 1 0 1 1 2 0 1 1 0 0 1-2 0Zm6 0a1 1 0 1 0-2 0 1 1 0 0 0 2 0Zm2 0a1 1 0 1 1 2 0 1 1 0 0 1-2 0Z" clip-rule="evenodd"/>
</svg>
