<svg xmlns="http://www.w3.org/2000/svg" fill="none" viewBox="0 0 24 24">
  <path fill="#383838" fill-rule="evenodd" d="M5 5c.6 0 1-.4 1-1a1 1 0 1 1 2 0c0 .6.4 1 1 1h1c.6 0 1-.4 1-1a1 1 0 1 1 2 0c0 .6.4 1 1 1h1c.6 0 1-.4 1-1a1 1 0 1 1 2 0c0 .6.4 1 1 1a2 2 0 0 1 2 2v1c0 .6-.4 1-1 1H4a1 1 0 0 1-1-1V7c0-1.1.9-2 2-2ZM3 19v-7c0-.6.4-1 1-1h16c.6 0 1 .4 1 1v7a2 2 0 0 1-2 2H5a2 2 0 0 1-2-2Zm6-6c0-.6-.4-1-1-1a1 1 0 1 0 0 2c.6 0 1-.4 1-1Zm2 0a1 1 0 1 1 2 0c0 .6-.4 1-1 1a1 1 0 0 1-1-1Zm6 0c0-.6-.4-1-1-1a1 1 0 1 0 0 2c.6 0 1-.4 1-1ZM7 17a1 1 0 1 1 2 0c0 .6-.4 1-1 1a1 1 0 0 1-1-1Zm6 0c0-.6-.4-1-1-1a1 1 0 1 0 0 2c.6 0 1-.4 1-1Zm2 0a1 1 0 1 1 2 0c0 .6-.4 1-1 1a1 1 0 0 1-1-1Z" clip-rule="evenodd"/>
</svg>
