<svg xmlns="http://www.w3.org/2000/svg" fill="none" viewBox="0 0 24 24">
  <path fill="#383838" fill-rule="evenodd" d="M12.5 8.7a2.5 2.5 0 0 1 3.5 0 2.5 2.5 0 0 1 0 3.5l-1.1 1a1 1 0 0 0-.2-.2l-3-3-.3-.2 1.1-1Zm-2.4 2.5L7.3 14a1 1 0 0 0-.3.7v2c0 .6.4 1 1 1h2c.3 0 .5 0 .7-.3l2.8-2.8-.2-.2-3-3-.2-.2Z" clip-rule="evenodd"/>
  <path fill="#383838" fill-rule="evenodd" d="M7 3c.6 0 1 .4 1 1v1h3V4a1 1 0 1 1 2 0v1h3V4a1 1 0 1 1 2 0v1h1a2 2 0 0 1 2 2v12a2 2 0 0 1-2 2H5a2 2 0 0 1-2-2V7c0-1.1.9-2 2-2h1V4c0-.6.4-1 1-1Zm10.7 8H19v8H5v-8h3.9l.5-.5c.2-.3.5-.4.9-.3 0 0 .2.1.2 0V10a1 1 0 0 1 .2-.9l1.1-1a3.5 3.5 0 0 1 4.9 0 3.5 3.5 0 0 1 1 2.9Z" clip-rule="evenodd"/>
</svg>
