<svg xmlns="http://www.w3.org/2000/svg" width="24" height="24" fill="currentColor" viewBox="0 0 24 24">
  <path fill-rule="evenodd" d="M12.512 8.72a2.46 2.46 0 0 1 3.479 0 2.461 2.461 0 0 1 0 3.479l-.004.005-1.094 1.08a.998.998 0 0 0-.194-.272l-3-3a1 1 0 0 0-.272-.193l1.085-1.1Zm-2.415 2.445L7.28 14.017a1 1 0 0 0-.289.702v2a1 1 0 0 0 1 1h2a1 1 0 0 0 .703-.288l2.851-2.816a.995.995 0 0 1-.26-.189l-3-3a.998.998 0 0 1-.19-.26Z" clip-rule="evenodd"/>
  <path fill-rule="evenodd" d="M7 3a1 1 0 0 1 1 1v1h3V4a1 1 0 1 1 2 0v1h3V4a1 1 0 1 1 2 0v1h1a2 2 0 0 1 2 2v12a2 2 0 0 1-2 2H5a2 2 0 0 1-2-2V7a2 2 0 0 1 2-2h1V4a1 1 0 0 1 1-1Zm10.67 8H19v8H5v-8h3.855l.53-.537a1 1 0 0 1 .87-.285c.097.015.233.13.277.087.045-.043-.073-.18-.09-.276a1 1 0 0 1 .274-.873l1.09-1.104a3.46 3.46 0 0 1 4.892 0l.001.002A3.461 3.461 0 0 1 17.67 11Z" clip-rule="evenodd"/>
</svg>
