<svg xmlns="http://www.w3.org/2000/svg" width="24" height="24" fill="currentColor" viewBox="0 0 24 24">
  <path fill-rule="evenodd" d="M18 14a1 1 0 1 0-2 0v2h-2a1 1 0 1 0 0 2h2v2a1 1 0 1 0 2 0v-2h2a1 1 0 1 0 0-2h-2v-2Z" clip-rule="evenodd"/>
  <path fill-rule="evenodd" d="M15.026 21.534A9.994 9.994 0 0 1 12 22C6.477 22 2 17.523 2 12S6.477 2 12 2c2.51 0 4.802.924 6.558 2.45l-7.635 7.636L7.707 8.87a1 1 0 0 0-1.414 1.414l3.923 3.923a1 1 0 0 0 1.414 0l8.3-8.3A9.956 9.956 0 0 1 22 12a9.994 9.994 0 0 1-.466 3.026A2.49 2.49 0 0 0 20 14.5h-.5V14a2.5 2.5 0 0 0-5 0v.5H14a2.5 2.5 0 0 0 0 5h.5v.5c0 .578.196 1.11.526 1.534Z" clip-rule="evenodd"/>
</svg>
