<svg xmlns="http://www.w3.org/2000/svg" width="20" height="20" fill="none" viewBox="0 0 20 20">
  <path fill="#2F2F38" d="M18.5 15.5H17V14a1 1 0 0 0-2 0v1.5h-1.5a1 1 0 0 0 0 2H15V19a1 1 0 0 0 2 0v-1.5h1.5a1 1 0 0 0 0-2Z"/>
  <path fill="#2F2F38" d="m18.222 5.255-7.475 8.409a1 1 0 0 1-.718.336H10a1 1 0 0 1-.707-.293l-4-4a1 1 0 0 1 1.414-1.414l3.25 3.25 7.055-7.936a9.5 9.5 0 1 0-3.885 15.355A2.495 2.495 0 0 1 13.5 14a2.5 2.5 0 0 1 5 0c.035 0 .068.009.1.01a9.43 9.43 0 0 0-.381-8.755h.003Z"/>
</svg>
