<svg xmlns="http://www.w3.org/2000/svg" fill="none" viewBox="0 0 24 24">
  <path fill="#383838" fill-rule="evenodd" d="M18 14a1 1 0 1 0-2 0v2h-2a1 1 0 1 0 0 2h2v2a1 1 0 1 0 2 0v-2h2a1 1 0 1 0 0-2h-2v-2Z" clip-rule="evenodd"/>
  <path fill="#383838" fill-rule="evenodd" d="M15 21.5a10 10 0 1 1 3.6-17L10.9 12 7.7 8.9a1 1 0 0 0-1.4 1.4l4 4a1 1 0 0 0 1.3 0L20 5.8a10 10 0 0 1 1.6 9.1c-.4-.3-1-.5-1.5-.5h-.5V14a2.5 2.5 0 0 0-5 0v.5H14a2.5 2.5 0 0 0 0 5h.5v.5c0 .6.2 1.1.5 1.5Z" clip-rule="evenodd"/>
</svg>
