<svg xmlns="http://www.w3.org/2000/svg" fill="none" viewBox="0 0 24 24">
  <path fill="#383838" fill-rule="evenodd" d="M9.6 2.6A2 2 0 0 1 11 2h2a2 2 0 0 1 2 2l.5.3a2 2 0 0 1 2.9 0l1.4 1.3a2 2 0 0 1 0 2.9l.1.5h.1a2 2 0 0 1 2 2v2a2 2 0 0 1-2 2l-.3.5a2 2 0 0 1 0 2.9l-1.3 1.4a2 2 0 0 1-2.9 0l-.5.1v.1a2 2 0 0 1-2 2h-2a2 2 0 0 1-2-2l-.5-.3a2 2 0 0 1-2.9 0l-1.4-1.3a2 2 0 0 1 0-2.9l-.1-.5H4a2 2 0 0 1-2-2v-2a2 2 0 0 1 2-2l.3-.5a2 2 0 0 1 0-2.9l1.3-1.4a2 2 0 0 1 2.9 0l.5-.1V4c0-.5.2-1 .6-1.4ZM8 12a4 4 0 1 1 8 0 4 4 0 0 1-8 0Z" clip-rule="evenodd"/>
</svg>
