<svg xmlns="http://www.w3.org/2000/svg" fill="none" viewBox="0 0 24 24">
  <path fill="#383838" d="M5 3a2 2 0 0 0-2 2v2c0 1.1.9 2 2 2h2a2 2 0 0 0 2-2V5a2 2 0 0 0-2-2H5Zm0 12a2 2 0 0 0-2 2v2c0 1.1.9 2 2 2h2a2 2 0 0 0 2-2v-2a2 2 0 0 0-2-2H5Zm12 0a2 2 0 0 0-2 2v2c0 1.1.9 2 2 2h2a2 2 0 0 0 2-2v-2a2 2 0 0 0-2-2h-2Zm0-12a2 2 0 0 0-2 2v2c0 1.1.9 2 2 2h2a2 2 0 0 0 2-2V5a2 2 0 0 0-2-2h-2Z"/>
  <path fill="#383838" fill-rule="evenodd" d="M10 6.5c0-.6.4-1 1-1h2a1 1 0 1 1 0 2h-2a1 1 0 0 1-1-1ZM10 18c0-.6.4-1 1-1h2a1 1 0 1 1 0 2h-2a1 1 0 0 1-1-1Zm-4-4a1 1 0 0 1-1-1v-2a1 1 0 1 1 2 0v2c0 .6-.4 1-1 1Zm12 0a1 1 0 0 1-1-1v-2a1 1 0 1 1 2 0v2c0 .6-.4 1-1 1Z" clip-rule="evenodd"/>
</svg>
