<svg xmlns="http://www.w3.org/2000/svg" fill="none" viewBox="0 0 20 20">
  <path fill="#2F2F38" d="M5 0H1a1 1 0 0 0-1 1v4a1 1 0 0 0 1 1h4a1 1 0 0 0 1-1V1a1 1 0 0 0-1-1Zm14 0h-4a1 1 0 0 0-1 1v4a1 1 0 0 0 1 1h4a1 1 0 0 0 1-1V1a1 1 0 0 0-1-1ZM5 14H1a1 1 0 0 0-1 1v4a1 1 0 0 0 1 1h4a1 1 0 0 0 1-1v-4a1 1 0 0 0-1-1Zm14 0h-4a1 1 0 0 0-1 1v4a1 1 0 0 0 1 1h4a1 1 0 0 0 1-1v-4a1 1 0 0 0-1-1ZM12 2H8a1 1 0 0 0 0 2h4a1 1 0 1 0 0-2Zm0 14H8a1 1 0 0 0 0 2h4a1 1 0 0 0 0-2Zm-8-4V8a1 1 0 0 0-2 0v4a1 1 0 1 0 2 0Zm14 0V8a1 1 0 0 0-2 0v4a1 1 0 0 0 2 0Z"/>
</svg>
