<svg xmlns="http://www.w3.org/2000/svg" fill="none" viewBox="0 0 24 24">
  <path fill="#383838" fill-rule="evenodd" d="M11.3 6.2H5a2 2 0 0 0-2 2V19a2 2 0 0 0 2 2h11c1.1 0 2-1 2-2.1V11l-4 4.2c-.3.3-.7.6-1.2.7l-2.7.6c-1.7.3-3.3-1.3-3-3.1l.6-2.9c.1-.5.4-1 .7-1.3l3-3.1Z" clip-rule="evenodd"/>
  <path fill="#383838" fill-rule="evenodd" d="M19.8 4.3a2.1 2.1 0 0 0-1-1.1 2 2 0 0 0-2.2.4l-.6.6 2.9 3 .5-.6a2.1 2.1 0 0 0 .6-1.5c0-.2 0-.5-.2-.8Zm-2.4 4.4-2.8-3-4.8 5-.1.3-.7 3c0 .3.3.7.6.6l2.7-.6.3-.1 4.7-5Z" clip-rule="evenodd"/>
</svg>
