<svg xmlns="http://www.w3.org/2000/svg" fill="none" viewBox="0 0 20 20">
  <path fill="#2F2F38" d="M10 .5a9.5 9.5 0 1 0 0 19 9.5 9.5 0 0 0 0-19ZM8.374 17.4a7.6 7.6 0 0 1-5.9-7.4c0-.83.137-1.655.406-2.441l.239.019a3.887 3.887 0 0 1 2.082 2.5 4.1 4.1 0 0 0 2.441 2.8c1.148.522 1.389 2.007.732 4.522Zm3.6-8.829a.997.997 0 0 0-.027-.225 5.456 5.456 0 0 0-2.811-3.662c-.832-.527-1.347-.854-1.486-1.89a7.584 7.584 0 0 1 8.364 2.47c-1.387.208-2.14 2.237-2.14 3.307a1.188 1.188 0 0 1-1.9 0Zm1.626 8.053-.671-2.013a1.9 1.9 0 0 1 1.771-1.757l2.032.619a7.554 7.554 0 0 1-3.132 3.151Z"/>
</svg>
