<svg xmlns="http://www.w3.org/2000/svg" fill="none" viewBox="0 0 24 24">
  <path fill="#383838" fill-rule="evenodd" d="M8.6 4.7A8 8 0 0 1 19 8h-.7c-.7 0-1.2.3-1.2 1 0 .2 0 2-2 2s-2-1.8-2-2c0-1.5-.8-1.7-1.7-2L10 6.6c-1-.5-1.3-1.2-1.5-1.9ZM6 4a10 10 0 0 0-2.8 3.3A10 10 0 0 0 12.5 22 10 10 0 1 0 6 4Zm13.4 11.1-.8-.1h-.2a3.4 3.4 0 0 0-3.4 3.4v1a8 8 0 0 0 4.4-4.3ZM12 20A8 8 0 0 1 5.1 8c1 .5 1.4 1.5 1.8 2.4l.7 1.1c.5.7 1 1 1.6 1.4.5.3 1 .6 1.6 1.3 1.4 1.8 1.4 4.3 1.3 5.8Z" clip-rule="evenodd"/>
</svg>
