<svg xmlns="http://www.w3.org/2000/svg" width="24" height="24" fill="currentColor" viewBox="0 0 24 24">
  <path d="M8.4 6.763c-.251.1-.383.196-.422.235L6.564 5.584l2.737-2.737c1.113-1.113 3.053-1.097 4.337.187l1.159 1.159a1 1 0 0 1 1.39.022l4.105 4.105a1 1 0 0 1 .023 1.39l1.345 1.346a1 1 0 0 1 0 1.415l-2.052 2.052a1 1 0 0 1-1.414 0l-1.346-1.346a1 1 0 0 1-1.323.039L11.29 8.983a1 1 0 0 1 .04-1.324l-.849-.848c-.18-.18-.606-.322-1.258-.25a3.271 3.271 0 0 0-.824.202Zm1.519 3.675L3.828 16.53a1 1 0 0 0 0 1.414l2.736 2.737a1 1 0 0 0 1.414 0l6.091-6.091-4.15-4.15Z"/>
</svg>
