<svg xmlns="http://www.w3.org/2000/svg" width="24" height="24" fill="currentColor" viewBox="0 0 24 24">
  <path fill-rule="evenodd" d="M2 7a2 2 0 0 1 2-2h16a2 2 0 0 1 2 2v10a2 2 0 0 1-2 2H4a2 2 0 0 1-2-2V7Zm5.01 1H5v2.01h2.01V8Zm3 0H8v2.01h2.01V8Zm3 0H11v2.01h2.01V8Zm3 0H14v2.01h2.01V8Zm3 0H17v2.01h2.01V8Zm-12 3H5v2.01h2.01V11Zm3 0H8v2.01h2.01V11Zm3 0H11v2.01h2.01V11Zm3 0H14v2.01h2.01V11Zm3 0H17v2.01h2.01V11Zm-12 3H5v2.01h2.01V14ZM8 14l-.001 2 8.011.01V14H8Zm11.01 0H17v2.01h2.01V14Z" clip-rule="evenodd"/>
</svg>
