<svg xmlns="http://www.w3.org/2000/svg" fill="none" viewBox="0 0 24 24">
  <path fill="#383838" fill-rule="evenodd" d="M5 10.2c.6 0 1 .4 1 1v.2l6 3.5 6-3.5v-.2a1 1 0 1 1 2 0v.8c0 .4-.2.7-.5.9l-7 4a1 1 0 0 1-1 0l-7-4A1 1 0 0 1 4 12v-.8c0-.6.5-1 1-1Zm0 5c.6 0 1 .4 1 1v.2l6 3.4 6-3.4V16a1 1 0 1 1 2 0v.9c0 .3-.2.6-.5.8l-7 4a1 1 0 0 1-1 0l-7-4A1 1 0 0 1 4 17v-1c0-.5.4-1 1-1Z" clip-rule="evenodd"/>
  <path fill="#383838" d="M12.5 2.1a1 1 0 0 0-1 0l-7 4a1 1 0 0 0 0 1.8l7 4c.3.2.7.2 1 0l7-4a1 1 0 0 0 0-1.7l-7-4Z"/>
</svg>
