<svg xmlns="http://www.w3.org/2000/svg" fill="none" viewBox="0 0 20 20">
  <g fill="#2F2F38">
    <path d="m1.56 6.245 8 3.924a1 1 0 0 0 .88 0l8-3.924a1 1 0 0 0 0-1.8l-8-3.925a1 1 0 0 0-.88 0l-8 3.925a1 1 0 0 0 0 1.8Z"/>
    <path d="M18 8.376a1 1 0 0 0-1 1v.163l-7 3.434-7-3.434v-.163a1 1 0 0 0-2 0v.786a1 1 0 0 0 .56.9l8 3.925a1 1 0 0 0 .88 0l8-3.925a1.001 1.001 0 0 0 .56-.9v-.786a1 1 0 0 0-1-1Z"/>
    <path d="M17.993 13.191a1 1 0 0 0-1 1v.163l-7 3.435-7-3.435v-.163a1 1 0 1 0-2 0v.787a1 1 0 0 0 .56.9l8 3.925a1 1 0 0 0 .881 0l8-3.925a1 1 0 0 0 .559-.9v-.787a1 1 0 0 0-1-1Z"/>
  </g>
</svg>
