<svg xmlns="http://www.w3.org/2000/svg" width="24" height="24" fill="currentColor" viewBox="0 0 24 24">
  <path d="m7.4 3.736 3.43 3.429A5.046 5.046 0 0 1 12.133 7c.356.01.71.06 1.056.147l3.41-3.412a2.32 2.32 0 0 1 .451-.344A9.89 9.89 0 0 0 12.268 2a10.022 10.022 0 0 0-5.322 1.392c.165.095.318.211.454.344Zm11.451 1.54-.127-.127a.5.5 0 0 0-.706 0l-2.932 2.932c.03.023.05.054.078.077.237.194.454.41.651.645.033.038.077.067.11.107l2.926-2.927a.5.5 0 0 0 0-.707Zm-2.931 9.81c-.025.03-.058.052-.082.082a4.97 4.97 0 0 1-.633.639c-.04.036-.072.083-.115.117l2.927 2.927a.5.5 0 0 0 .707 0l.127-.127a.5.5 0 0 0 0-.707l-2.932-2.931Zm-1.443-4.763a3.037 3.037 0 0 0-1.383-1.1l-.012-.007a2.956 2.956 0 0 0-1-.213H12a2.964 2.964 0 0 0-2.122.893c-.285.29-.509.634-.657 1.013l-.009.016a2.96 2.96 0 0 0-.21 1 2.99 2.99 0 0 0 .488 1.716l.032.04a3.04 3.04 0 0 0 1.384 1.1l.012.007c.319.129.657.2 1 .213.393.015.784-.05 1.15-.192.012-.005.021-.013.033-.018a3.01 3.01 0 0 0 1.676-1.7v-.007a2.89 2.89 0 0 0 0-2.207 2.868 2.868 0 0 0-.27-.515c-.007-.012-.02-.025-.03-.039Zm6.137-3.373a2.53 2.53 0 0 1-.349.447l-3.426 3.426c.112.428.166.869.161 1.311a4.954 4.954 0 0 1-.148 1.054l3.413 3.412c.133.134.249.283.347.444A9.88 9.88 0 0 0 22 12.269a9.913 9.913 0 0 0-1.386-5.319ZM16.6 20.264l-3.42-3.421c-.386.1-.782.152-1.18.157h-.135c-.356-.01-.71-.06-1.056-.147L7.4 20.265a2.503 2.503 0 0 1-.444.347A9.884 9.884 0 0 0 11.732 22H12a9.9 9.9 0 0 0 5.044-1.388 2.515 2.515 0 0 1-.444-.348ZM3.735 16.6l3.426-3.426a4.608 4.608 0 0 1-.013-2.367L3.735 7.4a2.508 2.508 0 0 1-.349-.447 9.889 9.889 0 0 0 0 10.1 2.48 2.48 0 0 1 .35-.453Zm5.101-.758a4.959 4.959 0 0 1-.65-.645c-.034-.038-.078-.067-.11-.107L5.15 18.017a.5.5 0 0 0 0 .707l.127.127a.5.5 0 0 0 .706 0l2.932-2.933c-.029-.018-.049-.053-.078-.076Zm-.755-6.928c.03-.037.07-.063.1-.1.183-.22.383-.423.6-.609.046-.04.081-.092.128-.13L5.983 5.149a.5.5 0 0 0-.707 0l-.127.127a.5.5 0 0 0 0 .707l2.932 2.931Z"/>
</svg>
