<svg xmlns="http://www.w3.org/2000/svg" width="24" height="24" fill="currentColor" viewBox="0 0 24 24">
  <path fill-rule="evenodd" d="M10 5a2 2 0 0 0-2 2v3h2.4A7.48 7.48 0 0 0 8 15.5a7.48 7.48 0 0 0 2.4 5.5H5a2 2 0 0 1-2-2v-7a2 2 0 0 1 2-2h1V7a4 4 0 1 1 8 0v1.15a7.446 7.446 0 0 0-1.943.685A.999.999 0 0 1 12 8.5V7a2 2 0 0 0-2-2Z" clip-rule="evenodd"/>
  <path fill-rule="evenodd" d="M10 15.5a5.5 5.5 0 1 1 11 0 5.5 5.5 0 0 1-11 0Zm6.5-1.5a1 1 0 1 0-2 0v1.5a1 1 0 0 0 .293.707l1 1a1 1 0 0 0 1.414-1.414l-.707-.707V14Z" clip-rule="evenodd"/>
</svg>
