<svg xmlns="http://www.w3.org/2000/svg" fill="none" viewBox="0 0 24 24">
  <path fill="#383838" fill-rule="evenodd" d="M17.4 3c.3 0 .6.1.7.3l2.6 2.6c.4.3.4 1 0 1.4l-2.5 2.5-4-4 2.5-2.5c.2-.2.5-.3.7-.3Zm-4.6 4.2-9.5 9.5a1 1 0 0 0 0 1.4l2.6 2.6c.3.4 1 .4 1.4 0l9.5-9.5-4-4ZM6 6c.6 0 1 .4 1 1v1h1a1 1 0 0 1 0 2H7v1a1 1 0 1 1-2 0v-1H4a1 1 0 0 1 0-2h1V7c0-.6.4-1 1-1Zm9 9c.6 0 1 .4 1 1v1h1a1 1 0 1 1 0 2h-1v1a1 1 0 1 1-2 0v-1h-1a1 1 0 1 1 0-2h1v-1c0-.6.4-1 1-1Z" clip-rule="evenodd"/>
  <path fill="#383838" d="M19 13h-2v2h2v-2ZM13 3h-2v2h2V3Zm-2 2H9v2h2V5ZM9 3H7v2h2V3Zm12 8h-2v2h2v-2Zm0 4h-2v2h2v-2Z"/>
</svg>
