<svg xmlns="http://www.w3.org/2000/svg" width="24" height="24" fill="currentColor" viewBox="0 0 24 24">
  <path fill-rule="evenodd" d="M3 5.983C3 4.888 3.895 4 5 4h14c1.105 0 2 .888 2 1.983v8.923a1.992 1.992 0 0 1-2 1.983h-6.6l-2.867 2.7c-.955.899-2.533.228-2.533-1.08v-1.62H5c-1.105 0-2-.888-2-1.983V5.983Zm5.706 3.809a1 1 0 1 0-1.412 1.417 1 1 0 1 0 1.412-1.417Zm2.585.002a1 1 0 1 1 .003 1.414 1 1 0 0 1-.003-1.414Zm5.415-.002a1 1 0 1 0-1.412 1.417 1 1 0 1 0 1.412-1.417Z" clip-rule="evenodd"/>
</svg>
