<svg xmlns="http://www.w3.org/2000/svg" fill="none" viewBox="0 0 20 20">
  <g fill="#2F2F38">
    <path d="M19 4h-1a1 1 0 1 0 0 2v11a1 1 0 0 1-2 0V2a2 2 0 0 0-2-2H2a2 2 0 0 0-2 2v15a3 3 0 0 0 3 3h14a3 3 0 0 0 3-3V5a1 1 0 0 0-1-1ZM3 4a1 1 0 0 1 1-1h3a1 1 0 0 1 1 1v3a1 1 0 0 1-1 1H4a1 1 0 0 1-1-1V4Zm9 13H4a1 1 0 0 1 0-2h8a1 1 0 0 1 0 2Zm0-3H4a1 1 0 0 1 0-2h8a1 1 0 0 1 0 2Zm0-3H4a1 1 0 0 1 0-2h8a1 1 0 1 1 0 2Zm0-3h-2a1 1 0 0 1 0-2h2a1 1 0 1 1 0 2Zm0-3h-2a1 1 0 0 1 0-2h2a1 1 0 1 1 0 2Z"/>
    <path d="M6 5H5v1h1V5Z"/>
  </g>
</svg>
