<svg xmlns="http://www.w3.org/2000/svg" width="24" height="24" fill="currentColor" viewBox="0 0 24 24">
  <path d="M13 21h6c1.1046 0 2-.8954 2-2V5c0-1.10457-.8954-2-2-2h-6v18Z"/>
  <path fill-rule="evenodd" d="M11 3H5c-1.10457 0-2 .89543-2 2v14c0 1.1046.89543 2 2 2h6V3Zm-5.70711 7.7071c-.39052-.3905-.39052-1.02368 0-1.41421.39053-.39052 1.02369-.39052 1.41422 0l1.99994 1.99991c.39052.3906.39052 1.0237 0 1.4142l-1.99994 2c-.39053.3905-1.02369.3905-1.41422 0-.39052-.3905-.39052-1.0237 0-1.4142l1.29284-1.2929-1.29284-1.2928Z" clip-rule="evenodd"/>
</svg>
