<svg xmlns="http://www.w3.org/2000/svg" width="24" height="24" fill="currentColor" viewBox="0 0 24 24">
  <path fill-rule="evenodd" d="M11.644 3.066a1 1 0 0 1 .712 0l7 2.666A1 1 0 0 1 20 6.68a17.694 17.694 0 0 1-2.023 7.98 17.406 17.406 0 0 1-5.402 6.158 1 1 0 0 1-1.15 0 17.405 17.405 0 0 1-5.403-6.157A17.695 17.695 0 0 1 4 6.68a1 1 0 0 1 .644-.949l7-2.666Zm4.014 7.187a1 1 0 0 0-1.316-1.506l-3.296 2.884-.839-.838a1 1 0 0 0-1.414 1.414l1.5 1.5a1 1 0 0 0 1.366.046l4-3.5Z" clip-rule="evenodd"/>
</svg>
