<svg xmlns="http://www.w3.org/2000/svg" width="24" height="24" fill="currentColor" viewBox="0 0 24 24">
  <path fill-rule="evenodd" d="M13 4.024v-.005c0-.053.002-.353-.217-.632a1.013 1.013 0 0 0-1.176-.315c-.192.076-.315.193-.35.225-.052.05-.094.1-.122.134a4.358 4.358 0 0 0-.31.457c-.207.343-.484.84-.773 1.375a168.719 168.719 0 0 0-1.606 3.074h-.002l-4.599.367c-1.775.14-2.495 2.339-1.143 3.488L6.17 15.14l-1.06 4.406c-.412 1.72 1.472 3.078 2.992 2.157l3.94-2.388c.592-.359.958-.996.958-1.692v-13.6Zm-2.002 0v.025-.025Z" clip-rule="evenodd"/>
</svg>
