<svg xmlns="http://www.w3.org/2000/svg" width="24" height="24" fill="currentColor" viewBox="0 0 24 24">
  <path fill-rule="evenodd" d="M9.166 19.986A.915.915 0 0 1 9 20H5a1 1 0 1 1 0-2h4c.057 0 .112.005.166.014a3.001 3.001 0 0 1 5.668 0A.915.915 0 0 1 15 18h4a1 1 0 1 1 0 2h-4c-.056 0-.112-.005-.166-.014a3.001 3.001 0 0 1-5.668 0ZM11 19a1 1 0 1 1 2 0 1 1 0 0 1-2 0Z" clip-rule="evenodd"/>
  <path d="M11.5 2.131a1 1 0 0 1 1 0l4.601 2.657c-.06.018-.12.044-.179.075L12.08 7.475 6.946 4.76 11.5 2.131ZM5.967 6.505v5.21a1 1 0 0 0 .5.866l4.57 2.638V9.186l-5.07-2.681Zm7.07 8.671 4.496-2.595a1 1 0 0 0 .5-.866v-5.2a1 1 0 0 1-.161.108l-4.835 2.608v5.945Z"/>
</svg>
