<svg xmlns="http://www.w3.org/2000/svg" fill="none" viewBox="0 0 20 16">
  <path fill="#2F3039" d="M19.9 6.58c0-.009 0-.019-.006-.027l-2-4A1 1 0 0 0 17 2h-4a2 2 0 0 0-2-2H2a2 2 0 0 0-2 2v9a1 1 0 0 0 1 1h.3c-.03.165-.047.332-.051.5a3.25 3.25 0 1 0 6.5 0A3.173 3.173 0 0 0 7.7 12h4.6c-.03.165-.047.332-.051.5a3.25 3.25 0 1 0 6.5 0 3.177 3.177 0 0 0-.049-.5h.3a1 1 0 0 0 1-1V7a.99.99 0 0 0-.1-.42ZM16.382 4l1 2H13V4h3.382ZM4.5 13.75a1.25 1.25 0 1 1 0-2.5 1.25 1.25 0 0 1 0 2.5Zm11 0a1.25 1.25 0 1 1 0-2.5 1.25 1.25 0 0 1 0 2.5Z"/>
</svg>
