<svg xmlns="http://www.w3.org/2000/svg" width="24" height="24" fill="currentColor" viewBox="0 0 24 24">
  <path d="M15 6.037c0-1.724-1.978-2.665-3.28-1.562L7.638 7.933H6c-1.105 0-2 .91-2 2.034v4.066c0 1.123.895 2.034 2 2.034h1.638l4.082 3.458c1.302 1.104 3.28.162 3.28-1.562V6.037Z"/>
  <path fill-rule="evenodd" d="M16.786 7.658a.988.988 0 0 1 1.414-.014A6.135 6.135 0 0 1 20 12c0 1.662-.655 3.17-1.715 4.27a.989.989 0 0 1-1.414.014 1.029 1.029 0 0 1-.014-1.437A4.085 4.085 0 0 0 18 12a4.085 4.085 0 0 0-1.2-2.904 1.029 1.029 0 0 1-.014-1.438Z" clip-rule="evenodd"/>
</svg>
