<svg xmlns="http://www.w3.org/2000/svg" fill="none" viewBox="0 0 22 21">
  <path fill="#2F2F38" d="M12.356 5.435 1.938 16.384a.5.5 0 0 0 .018.707l2.9 2.757a.5.5 0 0 0 .706-.018L15.978 8.882l-3.622-3.447Zm7.681-.819a.5.5 0 0 0-.018-.706l-2.9-2.757a.5.5 0 0 0-.707.017l-2.68 2.817 3.622 3.446 2.683-2.817Zm-2.89 12.233-1 .025-.024-1a1 1 0 1 0-2 .05l.025 1-1 .024a1 1 0 0 0 .05 2l1-.025.025 1a1 1 0 0 0 2-.05l-.025-1 1-.024a1 1 0 0 0-.05-2h-.001ZM2.953 9.2l.025 1a1 1 0 0 0 2-.05l-.025-1 1-.025a1 1 0 1 0-.05-2l-1 .025-.025-1a1 1 0 0 0-2 .049l.025 1-1 .025a1 1 0 0 0 .05 2l1-.024Zm15.07 2.626-2 .05.05 2 2-.05-.05-2ZM11.752.978l-2 .05.05 2 2-.05-.05-2Zm-2.95 2.075-2 .05.05 1.999 2-.05-.05-2ZM5.753 1.127l-2 .05.05 2 2-.05-.05-2Zm15.194 7.625-2 .05.05 2 2-.05-.05-2Zm.125 4.998-2 .05.05 2 2-.05-.05-2Z"/>
</svg>
