<svg xmlns="http://www.w3.org/2000/svg" width="24" height="24" fill="currentColor" viewBox="0 0 24 24">
  <path fill-rule="evenodd" d="M17.44 3a1 1 0 0 1 .707.293l2.56 2.56a1 1 0 0 1 0 1.414L18.194 9.78 14.22 5.806l2.513-2.513A1 1 0 0 1 17.44 3Zm-4.634 4.22-9.513 9.513a1 1 0 0 0 0 1.414l2.56 2.56a1 1 0 0 0 1.414 0l9.513-9.513-3.974-3.974ZM6 6a1 1 0 0 1 1 1v1h1a1 1 0 0 1 0 2H7v1a1 1 0 1 1-2 0v-1H4a1 1 0 0 1 0-2h1V7a1 1 0 0 1 1-1Zm9 9a1 1 0 0 1 1 1v1h1a1 1 0 1 1 0 2h-1v1a1 1 0 1 1-2 0v-1h-1a1 1 0 1 1 0-2h1v-1a1 1 0 0 1 1-1Z" clip-rule="evenodd"/>
  <path d="M19 13h-2v2h2v-2ZM13 3h-2v2h2V3Zm-2 2H9v2h2V5ZM9 3H7v2h2V3Zm12 8h-2v2h2v-2Zm0 4h-2v2h2v-2Z"/>
</svg>
