<svg xmlns="http://www.w3.org/2000/svg" fill="none" viewBox="0 0 24 24">
  <path fill="#383838" d="M12 17a2 2 0 0 1 2 2h-4a2 2 0 0 1 2-2Z"/>
  <path stroke="currentColor" stroke-linecap="round" stroke-linejoin="round" stroke-width="2" d="M13.8 9h2.7a2 2 0 1 0-1-3.7 1.9 1.9 0 0 0-.4-1.4 2 2 0 0 0-3.1-.2 2 2 0 0 0-3.5 1.6 2 2 0 1 0-1 3.7h3.4m3-1v3.6M10.1 9v2.6M15 16h0m-6 0h0m12-4.4a1.8 1.8 0 0 1-1.8 1.3 1.9 1.9 0 0 1-1.8-1.3 1.9 1.9 0 0 1-3.6 0 1.8 1.8 0 0 1-1.7 1.3 2 2 0 0 1-2-1.3 1.8 1.8 0 0 1-1.6 1.3 2 2 0 0 1-2-1.3 1.9 1.9 0 0 1-1.8 1.3A1.8 1.8 0 0 1 3 11.6v.4a9 9 0 0 0 18 0v-.4Z"/>
</svg>
