<svg xmlns="http://www.w3.org/2000/svg" width="24" height="24" fill="none" viewBox="0 0 24 24">
  <path stroke="currentColor" stroke-linecap="round" stroke-linejoin="round" stroke-width="2" d="M7 11c.889-.086 1.416-.543 2.156-1.057a22.323 22.323 0 0 0 3.958-5.084 1.6 1.6 0 0 1 .582-.628 1.549 1.549 0 0 1 1.466-.087c.205.095.388.233.537.406a1.64 1.64 0 0 1 .384 1.279l-1.388 4.114M7 11H4v6.5A1.5 1.5 0 0 0 5.5 19v0A1.5 1.5 0 0 0 7 17.5V11Zm6.5-1h4.915c.286 0 .372.014.626.15.254.135.472.332.637.572a1.874 1.874 0 0 1 .215 1.673l-2.098 6.4C17.538 19.52 17.368 20 16.12 20c-2.303 0-4.79-.943-6.67-1.475"/>
</svg>
