<svg xmlns="http://www.w3.org/2000/svg" width="24" height="24" fill="none" viewBox="0 0 24 24">
  <path stroke="currentColor" stroke-linecap="round" stroke-linejoin="round" stroke-width="2" d="M17 13c-.889.086-1.416.543-2.156 1.057a22.322 22.322 0 0 0-3.958 5.084 1.6 1.6 0 0 1-.582.628 1.549 1.549 0 0 1-1.466.087 1.587 1.587 0 0 1-.537-.406 1.666 1.666 0 0 1-.384-1.279l1.389-4.114M17 13h3V6.5A1.5 1.5 0 0 0 18.5 5v0A1.5 1.5 0 0 0 17 6.5V13Zm-6.5 1H5.585c-.286 0-.372-.014-.626-.15a1.797 1.797 0 0 1-.637-.572 1.873 1.873 0 0 1-.215-1.673l2.098-6.4C6.462 4.48 6.632 4 7.88 4c2.302 0 4.79.943 6.67 1.475"/>
</svg>
