<svg xmlns="http://www.w3.org/2000/svg" fill="none" viewBox="0 0 22 21">
  <path stroke="currentColor" stroke-linecap="round" stroke-width="2" d="M7.24 7.194a24.16 24.16 0 0 1 3.72-3.062m0 0c3.443-2.277 6.732-2.969 8.24-1.46 2.054 2.053.03 7.407-4.522 11.959-4.552 4.551-9.906 6.576-11.96 4.522C1.223 17.658 1.89 14.412 4.121 11m6.838-6.868c-3.443-2.277-6.732-2.969-8.24-1.46-2.054 2.053-.03 7.407 4.522 11.959m3.718-10.499a24.16 24.16 0 0 1 3.719 3.062M17.798 11c2.23 3.412 2.898 6.658 1.402 8.153-1.502 1.503-4.771.822-8.2-1.433m1-6.808a1 1 0 1 1-2 0 1 1 0 0 1 2 0Z"/>
</svg>
