<svg xmlns="http://www.w3.org/2000/svg" width="24" height="24" fill="none" viewBox="0 0 24 24">
  <path stroke="currentColor" stroke-linecap="round" stroke-linejoin="round" stroke-width="2" d="m7.171 12.906-2.153 6.411 2.672-.89 1.568 2.34 1.825-5.183m5.73-2.678 2.154 6.411-2.673-.89-1.568 2.34-1.825-5.183M9.165 4.3c.58.068 1.153-.17 1.515-.628a1.681 1.681 0 0 1 2.64 0 1.68 1.68 0 0 0 1.515.628 1.681 1.681 0 0 1 1.866 1.866c-.068.58.17 1.154.628 1.516a1.681 1.681 0 0 1 0 2.639 1.682 1.682 0 0 0-.628 1.515 1.681 1.681 0 0 1-1.866 1.866 1.681 1.681 0 0 0-1.516.628 1.681 1.681 0 0 1-2.639 0 1.681 1.681 0 0 0-1.515-.628 1.681 1.681 0 0 1-1.867-1.866 1.681 1.681 0 0 0-.627-1.515 1.681 1.681 0 0 1 0-2.64c.458-.361.696-.935.627-1.515A1.681 1.681 0 0 1 9.165 4.3ZM14 9a2 2 0 1 1-4 0 2 2 0 0 1 4 0Z"/>
</svg>
