<svg xmlns="http://www.w3.org/2000/svg" fill="none" viewBox="0 0 20 21">
  <path stroke="currentColor" stroke-linecap="round" stroke-linejoin="round" stroke-width="2" d="M10 3.464V1.099m0 2.365a5.338 5.338 0 0 1 5.133 5.368v1.8c0 2.386 1.867 2.982 1.867 4.175C17 15.4 17 16 16.462 16H3.538C3 16 3 15.4 3 14.807c0-1.193 1.867-1.789 1.867-4.175v-1.8A5.338 5.338 0 0 1 10 3.464ZM1.866 8.832a8.458 8.458 0 0 1 2.252-5.714m14.016 5.714a8.458 8.458 0 0 0-2.252-5.714M6.54 16a3.48 3.48 0 0 0 6.92 0H6.54Z"/>
</svg>
