<svg xmlns="http://www.w3.org/2000/svg" fill="none" viewBox="0 0 24 24">
  <path stroke="currentColor" stroke-linecap="round" stroke-linejoin="round" stroke-width="2" d="M12 18.5A2.5 2.5 0 0 1 7.5 20h0a2.5 2.5 0 0 1-2.4-3.2 3 3 0 0 1-.8-5.2 2.5 2.5 0 0 1 .9-3.2A2.5 2.5 0 0 1 7 5a2.5 2.5 0 0 1 5 .5m0 13v-13m0 13a2.5 2.5 0 0 0 4.5 1.5h0a2.5 2.5 0 0 0 2.4-3.2 3 3 0 0 0 .9-5.2 2.5 2.5 0 0 0-1-3.2A2.5 2.5 0 0 0 17 5a2.5 2.5 0 0 0-5 .5m-8 5a2.5 2.5 0 0 1 3.5-2.3m-.3 8.6a3 3 0 0 1-3-5.2M20 10.5a2.5 2.5 0 0 0-3.5-2.3m.3 8.6a3 3 0 0 0 3-5.2"/>
</svg>
