<svg xmlns="http://www.w3.org/2000/svg" width="24" height="24" fill="none" viewBox="0 0 24 24">
  <path fill="currentColor" d="M4 9H3v2h1V9Zm16 2h1V9h-1v2Zm-10 3a1 1 0 1 0 0 2v-2Zm4 2a1 1 0 1 0 0-2v2Zm-3 1a1 1 0 1 0 2 0h-2Zm2-4a1 1 0 1 0-2 0h2Zm-2-6a1 1 0 1 0 2 0h-2Zm2-3a1 1 0 1 0-2 0h2ZM6 7a1 1 0 0 0 2 0H6Zm2-3a1 1 0 1 0-2 0h2Zm8 3a1 1 0 1 0 2 0h-2Zm2-3a1 1 0 1 0-2 0h2ZM5 7h14V5H5v2Zm14 0v12h2V7h-2Zm0 12H5v2h14v-2ZM5 19V7H3v12h2Zm0 0H3c0 1.2.9 2 2 2v-2Zm14 0v2a2 2 0 0 0 2-2h-2Zm0-12h2a2 2 0 0 0-2-2v2ZM5 5a2 2 0 0 0-2 2h2V5Zm-1 6h16V9H4v2Zm6 5h4v-2h-4v2Zm3 1v-4h-2v4h2Zm0-10V4h-2v3h2ZM8 7V4H6v3h2Zm10 0V4h-2v3h2Z"/>
</svg>
