<svg xmlns="http://www.w3.org/2000/svg" width="24" height="24" fill="none" viewBox="0 0 24 24">
  <path stroke="currentColor" stroke-linecap="round" stroke-linejoin="round" stroke-width="2" d="M3 15v3c0 .5523.44772 1 1 1h8v-8m-9 4v-4m0 4h9m-9-4V6c0-.55228.44772-1 1-1h16c.5523 0 1 .44772 1 1v4M3 11h11m6.25 5c0 1.2426-1.0073 2.25-2.25 2.25M20.25 16c0-1.2426-1.0073-2.25-2.25-2.25M20.25 16H21m-3 2.25c-1.2426 0-2.25-1.0074-2.25-2.25M18 18.25V19m-2.25-3c0-1.2426 1.0074-2.25 2.25-2.25M15.75 16H15m3-2.25V13m-1.591 1.409-.5303-.5303m4.2426 4.2426-.5303-.5303m-3.182 0-.5303.5303m4.2426-4.2426-.5303.5303"/>
</svg>
