<svg xmlns="http://www.w3.org/2000/svg" fill="none" viewBox="0 0 24 24">
  <path stroke="currentColor" stroke-linecap="round" stroke-linejoin="round" stroke-width="2" d="M21 13v-2a1 1 0 0 0-1-1h-.8l-.7-1.7.6-.5a1 1 0 0 0 0-1.5L17.7 5a1 1 0 0 0-1.5 0l-.5.6-1.7-.7V4a1 1 0 0 0-1-1h-2a1 1 0 0 0-1 1v.8l-1.7.7-.5-.6a1 1 0 0 0-1.5 0L5 6.3a1 1 0 0 0 0 1.5l.6.5-.7 1.7H4a1 1 0 0 0-1 1v2a1 1 0 0 0 1 1h.8l.7 1.7-.6.5a1 1 0 0 0 0 1.5L6.3 19a1 1 0 0 0 1.5 0l.5-.6 1.7.7v.8a1 1 0 0 0 1 1h2a1 1 0 0 0 1-1v-.8l1.7-.7.5.6a1 1 0 0 0 1.5 0l1.4-1.4a1 1 0 0 0 0-1.5l-.6-.5.7-1.7h.8a1 1 0 0 0 1-1Z"/>
  <path stroke="currentColor" stroke-linecap="round" stroke-linejoin="round" stroke-width="2" d="M12 15a3 3 0 1 0 0-6 3 3 0 0 0 0 6Z"/>
</svg>
