<svg xmlns="http://www.w3.org/2000/svg" fill="none" viewBox="0 0 22 20">
  <path stroke="currentColor" stroke-linecap="round" stroke-linejoin="round" stroke-width="2" d="M20 10a28.076 28.076 0 0 1-1.091 9M6.231 2.37a8.994 8.994 0 0 1 12.88 3.73M1.958 13S2 12.577 2 10a8.949 8.949 0 0 1 1.735-5.307m12.84 3.088A5.98 5.98 0 0 1 17 10a30 30 0 0 1-.464 6.232M5 10a6 6 0 0 1 9.352-4.974M3 19a5.964 5.964 0 0 1 1.01-3.328 5.15 5.15 0 0 0 .786-1.926m8.66 2.486a13.96 13.96 0 0 1-.962 2.683M6.5 17.336C8 15.092 8 12.845 8 10a3 3 0 1 1 6 0c0 .749 0 1.521-.031 2.311M11 10c0 3 0 6-2 9"/>
</svg>
