<svg xmlns="http://www.w3.org/2000/svg" width="24" height="24" fill="none" viewBox="0 0 24 24">
  <path stroke="currentColor" stroke-linecap="round" stroke-linejoin="round" stroke-width="2" d="M14 17h6m-3 3v-6M4.857 4h4.286c.473 0 .857.384.857.857v4.286a.857.857 0 0 1-.857.857H4.857A.857.857 0 0 1 4 9.143V4.857C4 4.384 4.384 4 4.857 4Zm10 0h4.286c.473 0 .857.384.857.857v4.286a.857.857 0 0 1-.857.857h-4.286A.857.857 0 0 1 14 9.143V4.857c0-.473.384-.857.857-.857Zm-10 10h4.286c.473 0 .857.384.857.857v4.286a.857.857 0 0 1-.857.857H4.857A.857.857 0 0 1 4 19.143v-4.286c0-.473.384-.857.857-.857Z"/>
</svg>
