<svg xmlns="http://www.w3.org/2000/svg" fill="none" viewBox="0 0 18 18">
  <path stroke="currentColor" stroke-linecap="round" stroke-linejoin="round" stroke-width="2" d="M6.143 1H1.857A.857.857 0 0 0 1 1.857v4.286c0 .473.384.857.857.857h4.286A.857.857 0 0 0 7 6.143V1.857A.857.857 0 0 0 6.143 1Zm10 0h-4.286a.857.857 0 0 0-.857.857v4.286c0 .473.384.857.857.857h4.286A.857.857 0 0 0 17 6.143V1.857A.857.857 0 0 0 16.143 1Zm-10 10H1.857a.857.857 0 0 0-.857.857v4.286c0 .473.384.857.857.857h4.286A.857.857 0 0 0 7 16.143v-4.286A.857.857 0 0 0 6.143 11Zm10 0h-4.286a.857.857 0 0 0-.857.857v4.286c0 .473.384.857.857.857h4.286a.857.857 0 0 0 .857-.857v-4.286a.857.857 0 0 0-.857-.857Z"/>
</svg>
