<svg xmlns="http://www.w3.org/2000/svg" width="24" height="24" fill="none" viewBox="0 0 24 24">
  <path stroke="currentColor" stroke-linecap="square" stroke-width="2" d="M8 15h7.01v.01H15L8 15Z"/>
  <path stroke="currentColor" stroke-linecap="square" stroke-width="2" d="M20 6H4a1 1 0 0 0-1 1v10a1 1 0 0 0 1 1h16a1 1 0 0 0 1-1V7a1 1 0 0 0-1-1Z"/>
  <path stroke="currentColor" stroke-linecap="square" stroke-width="2" d="M6 9h.01v.01H6V9Zm0 3h.01v.01H6V12Zm0 3h.01v.01H6V15Zm3-6h.01v.01H9V9Zm0 3h.01v.01H9V12Zm3-3h.01v.01H12V9Zm0 3h.01v.01H12V12Zm3 0h.01v.01H15V12Zm3 0h.01v.01H18V12Zm0 3h.01v.01H18V15Zm-3-6h.01v.01H15V9Zm3 0h.01v.01H18V9Z"/>
</svg>
