<svg xmlns="http://www.w3.org/2000/svg" fill="none" viewBox="0 0 21 20">
  <path stroke="currentColor" stroke-linecap="round" stroke-linejoin="round" stroke-width="2" d="m8.806 5.614-4.251.362-2.244 2.243a1.058 1.058 0 0 0 .6 1.8l3.036.356m9.439 1.819-.362 4.251-2.243 2.244a1.059 1.059 0 0 1-1.795-.6l-.449-2.983m9.187-12.57a1.536 1.536 0 0 0-1.26-1.26c-1.818-.313-5.52-.7-7.179.96-1.88 1.881-5.863 9.016-7.1 11.275a1.049 1.049 0 0 0 .183 1.25l.932.939.937.936a1.049 1.049 0 0 0 1.25.183c2.259-1.239 9.394-5.222 11.275-7.1 1.66-1.663 1.275-5.365.962-7.183Zm-3.332 4.187a2.115 2.115 0 1 1-4.23 0 2.115 2.115 0 0 1 4.23 0Z"/>
</svg>
