<svg xmlns="http://www.w3.org/2000/svg" width="24" height="24" fill="none" viewBox="0 0 24 24">
  <path stroke="currentColor" stroke-linecap="round" stroke-width="2" d="M12.0001 20v-4M7.00012 4h9.99998M9.00012 5v5c0 .5523-.46939 1.0045-.94861 1.279-1.43433.8217-2.60135 3.245-2.25635 4.3653.07806.2535.35396.3557.61917.3557H17.5859c.2652 0 .5411-.1022.6192-.3557.3449-1.1204-.8221-3.5436-2.2564-4.3653-.4792-.2745-.9486-.7267-.9486-1.279V5c0-.55228-.4477-1-1-1h-4c-.55226 0-.99998.44772-.99998 1Z"/>
</svg>
