<svg xmlns="http://www.w3.org/2000/svg" width="24" height="24" fill="none" viewBox="0 0 24 24">
  <path stroke="currentColor" stroke-linecap="round" stroke-linejoin="round" stroke-width="2" d="M13 7h6l2 4m-8-4v8H9m4-8V6c0-.26522-.1054-.51957-.2929-.70711C12.5196 5.10536 12.2652 5 12 5H4c-.26522 0-.51957.10536-.70711.29289C3.10536 5.48043 3 5.73478 3 6v9h2m14 0h2v-4m0 0h-5M8 8.66669V10l1.5 1.5m10 5c0 1.3807-1.1193 2.5-2.5 2.5s-2.5-1.1193-2.5-2.5S15.6193 14 17 14s2.5 1.1193 2.5 2.5Zm-10 0C9.5 17.8807 8.38071 19 7 19s-2.5-1.1193-2.5-2.5S5.61929 14 7 14s2.5 1.1193 2.5 2.5Z"/>
</svg>
