<svg xmlns="http://www.w3.org/2000/svg" fill="none" viewBox="0 0 20 16">
  <path stroke="currentColor" stroke-linecap="round" stroke-linejoin="round" stroke-width="2" d="M15.5 10.25a2.25 2.25 0 1 0 0 4.5 2.25 2.25 0 0 0 0-4.5Zm0 0a2.225 2.225 0 0 0-1.666.75H12m3.5-.75a2.225 2.225 0 0 1 1.666.75H19V7m-7 4V3h5l2 4m-7 4H6.166a2.225 2.225 0 0 0-1.666-.75M12 11V2a1 1 0 0 0-1-1H2a1 1 0 0 0-1 1v9h1.834a2.225 2.225 0 0 1 1.666-.75M19 7h-6m-8.5 3.25a2.25 2.25 0 1 0 0 4.5 2.25 2.25 0 0 0 0-4.5Z"/>
</svg>
