<svg xmlns="http://www.w3.org/2000/svg" fill="none" viewBox="0 0 21 16">
  <path fill="#2F2F38" d="M16.942 1.556a16.3 16.3 0 0 0-4.126-1.3 12.04 12.04 0 0 0-.529 1.1 15.175 15.175 0 0 0-4.573 0 11.583 11.583 0 0 0-.535-1.1 16.274 16.274 0 0 0-4.129 1.3A17.392 17.392 0 0 0 .182 13.218a15.785 15.785 0 0 0 4.963 2.521c.41-.564.773-1.16 1.084-1.785a10.639 10.639 0 0 1-1.706-.83c.143-.106.283-.217.418-.331a11.664 11.664 0 0 0 10.118 0c.137.114.277.225.418.331-.544.328-1.116.606-1.71.832a12.58 12.58 0 0 0 1.084 1.785 16.462 16.462 0 0 0 5.064-2.595 17.286 17.286 0 0 0-2.973-11.59ZM6.678 10.813a1.94 1.94 0 0 1-1.8-2.045 1.931 1.931 0 0 1 1.8-2.047 1.919 1.919 0 0 1 1.8 2.047 1.93 1.93 0 0 1-1.8 2.045Zm6.644 0a1.94 1.94 0 0 1-1.8-2.045 1.931 1.931 0 0 1 1.8-2.047 1.918 1.918 0 0 1 1.8 2.047 1.93 1.93 0 0 1-1.8 2.045Z"/>
</svg>
