<svg xmlns="http://www.w3.org/2000/svg" fill="none" viewBox="0 0 24 24">
  <path fill="#2F2F38" d="M19 5.6c-1.4-.7-2.8-1.1-4.2-1.3l-.5 1c-1.5-.2-3-.2-4.6 0l-.5-1c-1.4.2-2.8.6-4.1 1.3a17.4 17.4 0 0 0-3 11.6 18 18 0 0 0 5 2.5c.5-.5.8-1.1 1.1-1.7l-1.7-1c.2 0 .3-.2.4-.3a11.7 11.7 0 0 0 10.2 0l.4.3-1.7.9 1 1.7c1.9-.5 3.6-1.4 5.1-2.6.4-4-.6-8.2-3-11.5ZM8.6 14.8a2 2 0 0 1-1.8-2 2 2 0 0 1 1.8-2 2 2 0 0 1 1.8 2 2 2 0 0 1-1.8 2Zm6.6 0a2 2 0 0 1-1.8-2 2 2 0 0 1 1.8-2 2 2 0 0 1 1.8 2 2 2 0 0 1-1.8 2Z"/>
</svg>
