<svg xmlns="http://www.w3.org/2000/svg" width="24" height="24" fill="currentColor" viewBox="0 0 24 24">
  <path d="M18.942 5.556a16.3 16.3 0 0 0-4.126-1.3 12.04 12.04 0 0 0-.529 1.1 15.175 15.175 0 0 0-4.573 0 11.586 11.586 0 0 0-.535-1.1 16.274 16.274 0 0 0-4.129 1.3 17.392 17.392 0 0 0-2.868 11.662 15.785 15.785 0 0 0 4.963 2.521c.41-.564.773-1.16 1.084-1.785a10.638 10.638 0 0 1-1.706-.83c.143-.106.283-.217.418-.331a11.664 11.664 0 0 0 10.118 0c.137.114.277.225.418.331-.544.328-1.116.606-1.71.832a12.58 12.58 0 0 0 1.084 1.785 16.46 16.46 0 0 0 5.064-2.595 17.286 17.286 0 0 0-2.973-11.59ZM8.678 14.813a1.94 1.94 0 0 1-1.8-2.045 1.93 1.93 0 0 1 1.8-2.047 1.918 1.918 0 0 1 1.8 2.047 1.929 1.929 0 0 1-1.8 2.045Zm6.644 0a1.94 1.94 0 0 1-1.8-2.045 1.93 1.93 0 0 1 1.8-2.047 1.919 1.919 0 0 1 1.8 2.047 1.93 1.93 0 0 1-1.8 2.045Z"/>
</svg>
