<svg xmlns="http://www.w3.org/2000/svg" width="24" height="24" fill="currentColor" viewBox="0 0 24 24">
  <path fill-rule="evenodd" d="M12 2a10 10 0 1 0 10 10A10.009 10.009 0 0 0 12 2Zm6.613 4.614a8.523 8.523 0 0 1 1.93 5.32 20.093 20.093 0 0 0-5.949-.274c-.059-.149-.122-.292-.184-.441a23.879 23.879 0 0 0-.566-1.239 11.41 11.41 0 0 0 4.769-3.366ZM10 3.707a8.82 8.82 0 0 1 2-.238 8.5 8.5 0 0 1 5.664 2.152 9.608 9.608 0 0 1-4.476 3.087A45.755 45.755 0 0 0 10 3.707Zm-6.358 6.555a8.57 8.57 0 0 1 4.73-5.981 53.99 53.99 0 0 1 3.168 4.941 32.078 32.078 0 0 1-7.9 1.04h.002Zm2.01 7.46a8.51 8.51 0 0 1-2.2-5.707v-.262a31.641 31.641 0 0 0 8.777-1.219c.243.477.477.964.692 1.449-.114.032-.227.067-.336.1a13.569 13.569 0 0 0-6.942 5.636l.009.003ZM12 20.556a8.508 8.508 0 0 1-5.243-1.8 11.717 11.717 0 0 1 6.7-5.332.509.509 0 0 1 .055-.02 35.65 35.65 0 0 1 1.819 6.476 8.476 8.476 0 0 1-3.331.676Zm4.772-1.462A37.232 37.232 0 0 0 15.113 13a12.513 12.513 0 0 1 5.321.364 8.56 8.56 0 0 1-3.66 5.73h-.002Z" clip-rule="evenodd"/>
</svg>
