<svg xmlns="http://www.w3.org/2000/svg" fill="none" viewBox="0 0 24 24">
  <path fill="#2F2F38" d="m16 12-5.7-2.8h-.1v6.5l2.4-2.9 3.3-.8Z"/>
  <path fill="#2F2F38" d="M11.5 4 17 7.5a4 4 0 0 1 2 3.8 3 3 0 0 1-2.4 2.6h-.2l-2.8.7-2 2.5a2 2 0 0 1-.6.5l.1.1a2 2 0 0 0 2 0c.6-.3 2.2-1.1 4.7-2.8l.2-.2c1.4-1 3.6-2.5 4-4.2A10 10 0 0 0 12.6 2c-1.6 0-3 .2-4.5.8 1.2.3 2.3.7 3.4 1.3Z"/>
  <path fill="#2F2F38" d="M5.4 17v-6.4a3.7 3.7 0 0 1 1.7-3 4 4 0 0 1 3.4-.3l.5.1 5.8 2.9.2.2A2.1 2.1 0 0 0 16 9l-5.5-3.3c-1.7-.8-3.9-1.5-5.2-1a10 10 0 0 0 .5 15.1c-.2-.9-.4-1.8-.4-2.7Z"/>
  <path fill="#2F2F38" d="m19.1 16.2-.3.1a60.4 60.4 0 0 1-4.7 3 4 4 0 0 1-4 0A3.8 3.8 0 0 1 8.3 16V9H8a1.8 1.8 0 0 0-.8 1.6V17c0 1.5.4 3 1.1 4.3A10.1 10.1 0 0 0 22 14c-.8.9-1.8 1.6-2.8 2.3Z"/>
</svg>
