<svg xmlns="http://www.w3.org/2000/svg" width="24" height="24" fill="none" viewBox="0 0 24 24">
  <path fill="currentColor" d="M4 4a2 2 0 0 0-2 2v12a2 2 0 0 0 2 2h16a2 2 0 0 0 2-2V6a2 2 0 0 0-2-2H4Z"/>
  <path fill="#ffffff" d="M15.643 9.382a3.314 3.314 0 0 0-1.158-.2c-1.276 0-2.177.643-2.184 1.566-.008.678.64 1.06 1.131 1.286.504.233.672.38.67.588-.003.317-.402.46-.772.46-.51 0-.789-.07-1.217-.248l-.159-.075-.18 1.063c.31.13.869.24 1.446.25 1.357 0 2.244-.64 2.255-1.621.01-.542-.34-.951-1.079-1.29-.449-.219-.727-.365-.727-.588 0-.197.238-.408.737-.408.332-.008.661.055.967.183l.12.053.181-1.026-.031.007Zm3.312-.114h-.997c-.31 0-.544.085-.68.393l-1.917 4.345h1.356l.272-.713 1.656.002c.039.166.158.71.158.71H20l-1.045-4.737Zm-8.49-.04h1.294l-.809 4.74H9.659l.807-4.742v.002Zm-3.282 2.613.134.658 1.264-3.231h1.37l-2.035 4.731H6.549L5.432 9.993a.27.27 0 0 0-.119-.159 5.543 5.543 0 0 0-1.27-.47l.018-.1h2.081c.283.012.51.1.586.402l.454 2.177.001-.002Zm10.177.483.515-1.326c-.006.014.106-.273.171-.451l.089.409.3 1.367h-1.076Z"/>
</svg>
