<svg xmlns="http://www.w3.org/2000/svg" fill="none" viewBox="0 0 24 24">
  <path fill="#383838" fill-rule="evenodd" d="M5 3a1 1 0 0 0 0 2h.7l2.1 10.2a3 3 0 1 0 4 1.8h2.4a3 3 0 1 0 2.8-2H9.8l-.2-1h8.2a1 1 0 0 0 1-.8l1.2-6A1 1 0 0 0 19 6h-2.3c.2.3.3.6.3 1a2 2 0 0 1-2 2 2 2 0 1 1-4 0 2 2 0 0 1-1.7-3H7.9l-.4-2.2a1 1 0 0 0-1-.8H5Z" clip-rule="evenodd"/>
  <path fill="#383838" fill-rule="evenodd" d="M14 5a1 1 0 1 0-2 0v1h-1a1 1 0 1 0 0 2h1v1a1 1 0 1 0 2 0V8h1a1 1 0 1 0 0-2h-1V5Z" clip-rule="evenodd"/>
</svg>
