<svg xmlns="http://www.w3.org/2000/svg" width="24" height="24" fill="none" viewBox="0 0 24 24">
  <path fill="currentColor" d="M2 7c0-1.10457.89543-2 2-2h16c1.1046 0 2 .89543 2 2v4c0 .5523-.4477 1-1 1s-1-.4477-1-1v-1H4v7h10c.5523 0 1 .4477 1 1s-.4477 1-1 1H4c-1.10457 0-2-.8954-2-2V7Z"/>
  <path fill="currentColor" d="M5 14c0-.5523.44772-1 1-1h2c.55228 0 1 .4477 1 1s-.44772 1-1 1H6c-.55228 0-1-.4477-1-1Zm5 0c0-.5523.4477-1 1-1h4c.5523 0 1 .4477 1 1s-.4477 1-1 1h-4c-.5523 0-1-.4477-1-1Zm9-1c.5523 0 1 .4477 1 1v1h1c.5523 0 1 .4477 1 1s-.4477 1-1 1h-1v1c0 .5523-.4477 1-1 1s-1-.4477-1-1v-1h-1c-.5523 0-1-.4477-1-1s.4477-1 1-1h1v-1c0-.5523.4477-1 1-1Z"/>
</svg>
