<svg xmlns="http://www.w3.org/2000/svg" fill="none" viewBox="0 0 24 24">
  <path fill="#383838" fill-rule="evenodd" d="M12.1 2c.6 0 1 .4 1 1v1.3a6 6 0 0 1 3.7 2 1 1 0 1 1-1.6 1.3c-.5-.6-1.2-1-2-1.3a4.2 4.2 0 0 0-1.1-.1c-1.4 0-2.4.8-2.7 1.7-.1.6 0 1.2.6 1.9.5.6 1.3 1.2 2.3 1.4 1.3.3 2.5 1.1 3.3 2.1a4 4 0 0 1 1 3.6 4.3 4.3 0 0 1-3.5 3V21a1 1 0 1 1-2 0v-1a6 6 0 0 1-3.9-2 1 1 0 1 1 1.6-1.3c.5.7 1.2 1.1 2 1.3 2 .5 3.5-.4 3.8-1.6a2 2 0 0 0-.6-1.8 4.4 4.4 0 0 0-2.2-1.5 6.4 6.4 0 0 1-3.4-2 4 4 0 0 1-.9-3.7c.4-1.7 2-2.8 3.6-3.1V3c0-.6.5-1 1-1Z" clip-rule="evenodd"/>
</svg>
