<svg xmlns="http://www.w3.org/2000/svg" fill="none" viewBox="0 0 24 24">
  <path fill="#383838" fill-rule="evenodd" d="M5.6 2c.4 0 .8 0 1.1.3L8 3.6l1.3-1.3a1 1 0 0 1 1.4 0L12 3.6l1.3-1.3a1 1 0 0 1 1.4 0L16 3.6l1.3-1.3A1 1 0 0 1 19 3v18a1 1 0 0 1-1.7.7L16 20.4l-1.3 1.3a1 1 0 0 1-1.4 0L12 20.4l-1.3 1.3a1 1 0 0 1-1.4 0L8 20.4l-1.3 1.3A1 1 0 0 1 5 21V3c0-.4.2-.8.6-1ZM9 7a1 1 0 0 0 0 2h6a1 1 0 1 0 0-2H9Zm0 4a1 1 0 1 0 0 2h6a1 1 0 1 0 0-2H9Zm0 4a1 1 0 1 0 0 2h6a1 1 0 1 0 0-2H9Z" clip-rule="evenodd"/>
</svg>
