<svg xmlns="http://www.w3.org/2000/svg" fill="none" viewBox="0 0 14 20">
  <path fill="#2F2F38" d="M13.383.076a1 1 0 0 0-1.09.217L11 1.586 9.707.293a1 1 0 0 0-1.414 0L7 1.586 5.707.293a1 1 0 0 0-1.414 0L3 1.586 1.707.293A1 1 0 0 0 0 1v18a1 1 0 0 0 1.707.707L3 18.414l1.293 1.293a1 1 0 0 0 1.414 0L7 18.414l1.293 1.293a1 1 0 0 0 1.414 0L11 18.414l1.293 1.293A1 1 0 0 0 14 19V1a1 1 0 0 0-.617-.924ZM10 15H4a1 1 0 0 1 0-2h6a1 1 0 0 1 0 2Zm0-4H4a1 1 0 0 1 0-2h6a1 1 0 1 1 0 2Zm0-4H4a1 1 0 1 1 0-2h6a1 1 0 1 1 0 2Z"/>
</svg>
