<svg xmlns="http://www.w3.org/2000/svg" width="24" height="24" fill="currentColor" viewBox="0 0 24 24">
  <path fill-rule="evenodd" d="M5.617 2.076a1 1 0 0 1 1.09.217L8 3.586l1.293-1.293a1 1 0 0 1 1.414 0L12 3.586l1.293-1.293a1 1 0 0 1 1.414 0L16 3.586l1.293-1.293A1 1 0 0 1 19 3v18a1 1 0 0 1-1.707.707L16 20.414l-1.293 1.293a1 1 0 0 1-1.414 0L12 20.414l-1.293 1.293a1 1 0 0 1-1.414 0L8 20.414l-1.293 1.293A1 1 0 0 1 5 21V3a1 1 0 0 1 .617-.924ZM9 7a1 1 0 0 0 0 2h6a1 1 0 1 0 0-2H9Zm0 4a1 1 0 1 0 0 2h6a1 1 0 1 0 0-2H9Zm0 4a1 1 0 1 0 0 2h6a1 1 0 1 0 0-2H9Z" clip-rule="evenodd"/>
</svg>
