<svg xmlns="http://www.w3.org/2000/svg" width="24" height="24" fill="currentColor" viewBox="0 0 24 24">
  <path fill-rule="evenodd" d="M12 4a1 1 0 1 0 0 2 1 1 0 0 0 0-2Zm-2.952.462c-.483.19-.868.432-1.19.71-.363.315-.638.677-.831.93l-.106.14c-.21.268-.36.418-.574.527C6.125 6.883 5.74 7 5 7a1 1 0 0 0 0 2c.364 0 .696-.022 1-.067v.41l-1.864 4.2a1.774 1.774 0 0 0 .821 2.255c.255.133.538.202.825.202h2.436a1.786 1.786 0 0 0 1.768-1.558 1.774 1.774 0 0 0-.122-.899L8 9.343V8.028c.2-.188.36-.38.495-.553.062-.079.118-.15.168-.217.185-.24.311-.406.503-.571a1.89 1.89 0 0 1 .24-.177A3.01 3.01 0 0 0 11 7.829V20H5.5a1 1 0 1 0 0 2h13a1 1 0 1 0 0-2H13V7.83a3.01 3.01 0 0 0 1.63-1.387c.206.091.373.19.514.29.31.219.532.465.811.78l.025.027.02.023v1.78l-1.864 4.2a1.774 1.774 0 0 0 .821 2.255c.255.133.538.202.825.202h2.436a1.785 1.785 0 0 0 1.768-1.558 1.773 1.773 0 0 0-.122-.899L18 9.343v-.452c.302.072.633.109 1 .109a1 1 0 1 0 0-2c-.48 0-.731-.098-.899-.2-.2-.12-.363-.293-.651-.617l-.024-.026c-.267-.3-.622-.7-1.127-1.057a5.152 5.152 0 0 0-1.355-.678 3.001 3.001 0 0 0-5.896.04Z" clip-rule="evenodd"/>
</svg>
