<svg xmlns="http://www.w3.org/2000/svg" fill="none" viewBox="0 0 20 20">
  <path fill="#2F2F38" d="M17.876.517A1 1 0 0 0 17 0H3a1 1 0 0 0-.871.508C1.63 1.393 0 5.385 0 6.75a3.236 3.236 0 0 0 1 2.336V19a1 1 0 0 0 1 1h2a1 1 0 0 0 1-1v-6h4v6a1 1 0 0 0 1 1h8a1 1 0 0 0 1-1V9.044a3.242 3.242 0 0 0 1-2.294c0-1.283-1.626-5.33-2.124-6.233ZM15.5 14.7a.8.8 0 0 1-.8.8h-2.4a.8.8 0 0 1-.8-.8v-2.4a.8.8 0 0 1 .8-.8h2.4a.8.8 0 0 1 .8.8v2.4ZM16.75 8a1.252 1.252 0 0 1-1.25-1.25 1 1 0 0 0-2 0 1.25 1.25 0 0 1-2.5 0 1 1 0 0 0-2 0 1.25 1.25 0 0 1-2.5 0 1 1 0 0 0-2 0A1.252 1.252 0 0 1 3.25 8 1.266 1.266 0 0 1 2 6.75C2.306 5.1 2.841 3.501 3.591 2H16.4A19.015 19.015 0 0 1 18 6.75 1.337 1.337 0 0 1 16.75 8Z"/>
</svg>
