<svg xmlns="http://www.w3.org/2000/svg" fill="none" viewBox="0 0 24 24">
  <path fill="#383838" fill-rule="evenodd" d="M12 14a3 3 0 0 1 3-3h4a2 2 0 0 1 2 2v2a2 2 0 0 1-2 2h-4a3 3 0 0 1-3-3Zm3-1a1 1 0 1 0 0 2h4v-2h-4Z" clip-rule="evenodd"/>
  <path fill="#383838" fill-rule="evenodd" d="M12.3 3.3a1 1 0 0 1 1.4 0L16.4 6h-2.8l-1.3-1.3a1 1 0 0 1 0-1.4Zm.1 2.7L9.7 3.3a1 1 0 0 0-1.4 0L5.6 6h6.8ZM4.6 7A2 2 0 0 0 3 9v10c0 1.1.9 2 2 2h12a2 2 0 0 0 2-2h-4a5 5 0 0 1 0-10h4a2 2 0 0 0-1.5-2h-13Z" clip-rule="evenodd"/>
</svg>
