<svg xmlns="http://www.w3.org/2000/svg" width="24" height="24" fill="currentColor" viewBox="0 0 24 24">
  <path fill-rule="evenodd" d="M13 3a1 1 0 1 0-2 0v2a1 1 0 1 0 2 0V3ZM6.343 4.929A1 1 0 0 0 4.93 6.343l1.414 1.414a1 1 0 0 0 1.414-1.414L6.343 4.929Zm12.728 1.414a1 1 0 0 0-1.414-1.414l-1.414 1.414a1 1 0 0 0 1.414 1.414l1.414-1.414ZM12 7a5 5 0 1 0 0 10 5 5 0 0 0 0-10Zm-9 4a1 1 0 1 0 0 2h2a1 1 0 1 0 0-2H3Zm16 0a1 1 0 1 0 0 2h2a1 1 0 1 0 0-2h-2ZM7.757 17.657a1 1 0 1 0-1.414-1.414l-1.414 1.414a1 1 0 1 0 1.414 1.414l1.414-1.414Zm9.9-1.414a1 1 0 0 0-1.414 1.414l1.414 1.414a1 1 0 0 0 1.414-1.414l-1.414-1.414ZM13 19a1 1 0 1 0-2 0v2a1 1 0 1 0 2 0v-2Z" clip-rule="evenodd"/>
</svg>
